<svg width="160" height="270" viewBox="0 0 160 270" fill="none" xmlns="http://www.w3.org/2000/svg"><g clip-path="url(#a)"><path d="M0 44C0 19.7 19.7 0 44 0h72c24.301 0 44 19.7 44 44v182c0 24.301-19.699 44-44 44H44c-24.3 0-44-19.699-44-44V44z" fill="#0728EF"/><path d="M34.37 66V51.908h-2.18v5.918h-7.236v-5.918h-2.187V66h2.187v-6.182h7.236V66h2.178zm7.617-1.66c-1.826 0-2.851-1.338-2.851-3.662 0-2.305 1.025-3.653 2.851-3.653 1.817 0 2.852 1.348 2.852 3.653 0 2.314-1.035 3.662-2.852 3.662zm0 1.865c3.106 0 5.01-2.08 5.01-5.527 0-3.428-1.914-5.518-5.01-5.518-3.105 0-5.02 2.09-5.02 5.518 0 3.447 1.905 5.527 5.02 5.527zM62.8 55.365h-2.1l-1.894 8.115h-.166l-2.188-8.115H54.44l-2.188 8.115h-.156l-1.904-8.115h-2.13L50.993 66h2.159l2.187-7.832h.166L57.701 66h2.178l2.92-10.635zm8.049-2.578v2.627H69.1v1.768h1.748v6.005c0 2.051.927 2.872 3.261 2.872.41 0 .791-.05 1.124-.108v-1.748c-.293.03-.46.049-.782.049-1.045 0-1.504-.488-1.504-1.602v-5.468h2.383v-1.768h-2.383v-2.627h-2.1zM81.933 64.34c-1.826 0-2.852-1.338-2.852-3.662 0-2.305 1.026-3.653 2.852-3.653 1.816 0 2.851 1.348 2.851 3.653 0 2.314-1.035 3.662-2.851 3.662zm0 1.865c3.105 0 5.01-2.08 5.01-5.527 0-3.428-1.915-5.518-5.01-5.518-3.106 0-5.02 2.09-5.02 5.518 0 3.447 1.905 5.527 5.02 5.527zM22.279 82.373c0 1.582.938 2.49 2.96 2.969l1.855.43c1.064.253 1.562.663 1.562 1.298 0 .85-.927 1.436-2.236 1.436-1.27 0-2.05-.508-2.315-1.328h-2.1c.186 1.885 1.837 3.027 4.366 3.027 2.54 0 4.404-1.338 4.404-3.34 0-1.562-.947-2.431-2.968-2.9l-1.768-.41c-1.152-.264-1.69-.664-1.69-1.3 0-.83.89-1.386 2.061-1.386 1.192 0 1.953.498 2.149 1.28h2.011c-.205-1.876-1.767-2.989-4.16-2.989-2.402 0-4.13 1.328-4.13 3.213zm16.378-3.184c-1.445 0-2.695.723-3.34 1.934h-.156v-1.758H33.14v14.082h2.1V88.39h.165c.557 1.123 1.758 1.787 3.272 1.787 2.685 0 4.394-2.12 4.394-5.498 0-3.38-1.709-5.489-4.414-5.489zm-.595 9.102c-1.758 0-2.862-1.387-2.862-3.603 0-2.227 1.104-3.614 2.871-3.614 1.778 0 2.842 1.358 2.842 3.604 0 2.256-1.064 3.613-2.851 3.613zM49.8 80.947c1.553 0 2.568 1.084 2.617 2.754h-5.371c.117-1.66 1.201-2.754 2.754-2.754zm2.607 6.182c-.39.83-1.26 1.289-2.529 1.289-1.68 0-2.764-1.182-2.832-3.047v-.117h7.51v-.733c0-3.34-1.787-5.36-4.746-5.36-2.998 0-4.903 2.157-4.903 5.556 0 3.398 1.865 5.488 4.912 5.488 2.432 0 4.131-1.172 4.61-3.076h-2.022zM56.911 90h2.1v-6.22c0-1.66 1.035-2.696 2.724-2.696 1.563 0 2.325.85 2.325 2.559V90h2.1v-6.885c0-2.53-1.339-3.955-3.712-3.955-1.601 0-2.841.713-3.359 1.895h-.156v-1.69H56.91V90zm15.929.176c1.465 0 2.705-.694 3.34-1.856h.166V90h2.012V75.215h-2.1v5.84h-.156c-.577-1.172-1.807-1.866-3.262-1.866-2.686 0-4.414 2.13-4.414 5.489 0 3.369 1.709 5.498 4.414 5.498zm.596-9.102c1.757 0 2.861 1.397 2.861 3.614 0 2.226-1.094 3.603-2.861 3.603-1.778 0-2.842-1.357-2.842-3.613 0-2.237 1.074-3.604 2.842-3.604zm14.27 12.793c2.167 0 3.173-.84 4.081-3.428l3.965-11.074h-2.226l-2.657 8.448h-.166l-2.666-8.448h-2.285L89.6 90.04l-.156.518c-.362 1.074-.928 1.494-1.924 1.494-.195 0-.518-.01-.684-.04v1.807c.195.04.694.05.87.05zm14.112-5.527c-1.826 0-2.852-1.338-2.852-3.662 0-2.305 1.026-3.653 2.852-3.653 1.816 0 2.851 1.348 2.851 3.653 0 2.314-1.035 3.662-2.851 3.662zm0 1.865c3.105 0 5.009-2.08 5.009-5.527 0-3.428-1.914-5.518-5.009-5.518-3.106 0-5.02 2.09-5.02 5.518 0 3.447 1.904 5.527 5.02 5.527zm16.544-10.84h-2.09v6.22c0 1.67-1.045 2.677-2.735 2.677-1.552 0-2.343-.82-2.343-2.54v-6.357h-2.1v6.885c0 2.52 1.397 3.955 3.76 3.955 1.601 0 2.812-.683 3.33-1.894h.166V90h2.012V79.365zM121.253 90h2.1v-6.28c0-1.493 1.123-2.5 2.705-2.5.352 0 .996.07 1.162.128v-2.07c-.225-.06-.625-.089-.928-.089-1.386 0-2.558.762-2.861 1.807h-.156v-1.63h-2.022V90zm-89.364 24h2.324l-5.088-14.092h-2.354L21.684 114h2.246l1.299-3.74h5.37l1.29 3.74zm-4.053-11.533h.166l2.041 5.957h-4.258l2.05-5.957zm15.177 6.084c0 2.129-1.084 3.476-2.881 3.476-1.807 0-2.822-1.357-2.822-3.476 0-2.119 1.015-3.477 2.822-3.477 1.787 0 2.88 1.358 2.88 3.477zm-2.852 9.511c3.008 0 4.912-1.542 4.912-3.974v-10.723h-2.011v1.699h-.166c-.596-1.152-1.876-1.875-3.34-1.875-2.715 0-4.414 2.129-4.414 5.372 0 3.183 1.68 5.283 4.394 5.283 1.465 0 2.637-.635 3.281-1.787h.157v2.041c0 1.406-1.035 2.236-2.783 2.236-1.416 0-2.305-.498-2.481-1.27h-2.148c.224 1.807 1.943 2.998 4.6 2.998zm12.286-5.722c-1.826 0-2.851-1.338-2.851-3.662 0-2.305 1.025-3.653 2.851-3.653 1.817 0 2.852 1.348 2.852 3.653 0 2.314-1.035 3.662-2.852 3.662zm0 1.865c3.106 0 5.01-2.08 5.01-5.527 0-3.428-1.914-5.518-5.01-5.518-3.105 0-5.02 2.09-5.02 5.518 0 3.447 1.905 5.527 5.02 5.527zm7.374-.205h2.1v-6.221c0-1.66 1.035-2.695 2.725-2.695 1.562 0 2.324.85 2.324 2.559V114h2.1v-6.885c0-2.529-1.338-3.955-3.711-3.955-1.602 0-2.842.713-3.36 1.895h-.156v-1.69H59.82V114zm23.372.342c3.144 0 5.459-1.856 5.85-4.639h-2.178c-.391 1.592-1.807 2.598-3.672 2.598-2.54 0-4.121-2.061-4.121-5.342 0-3.291 1.581-5.352 4.11-5.352 1.856 0 3.272 1.114 3.683 2.842h2.177c-.351-2.871-2.754-4.883-5.86-4.883-3.915 0-6.347 2.823-6.347 7.393 0 4.561 2.442 7.383 6.358 7.383zm12.813-2.002c-1.826 0-2.852-1.338-2.852-3.662 0-2.305 1.026-3.653 2.852-3.653 1.817 0 2.852 1.348 2.852 3.653 0 2.314-1.035 3.662-2.852 3.662zm0 1.865c3.106 0 5.01-2.08 5.01-5.527 0-3.428-1.914-5.518-5.01-5.518-3.105 0-5.02 2.09-5.02 5.518 0 3.447 1.905 5.527 5.02 5.527zm7.413-.205h2.09v-10.635h-2.09V114zm1.045-12.5c.781 0 1.358-.557 1.358-1.279 0-.733-.577-1.29-1.358-1.29-.781 0-1.357.557-1.357 1.29 0 .722.576 1.279 1.357 1.279zm3.966 12.5h2.1v-6.221c0-1.66 1.035-2.695 2.724-2.695 1.563 0 2.324.85 2.324 2.559V114h2.1v-6.885c0-2.529-1.338-3.955-3.711-3.955-1.601 0-2.842.713-3.359 1.895h-.157v-1.69h-2.021V114zm11.798-7.627c0 1.582.937 2.49 2.959 2.969l1.855.429c1.065.254 1.563.665 1.563 1.299 0 .85-.928 1.436-2.236 1.436-1.27 0-2.051-.508-2.315-1.328h-2.1c.186 1.884 1.836 3.027 4.366 3.027 2.539 0 4.404-1.338 4.404-3.34 0-1.562-.947-2.431-2.969-2.9l-1.767-.41c-1.153-.264-1.69-.664-1.69-1.299 0-.83.889-1.387 2.061-1.387 1.191 0 1.953.498 2.148 1.279h2.012c-.205-1.875-1.768-2.988-4.16-2.988-2.403 0-4.131 1.328-4.131 3.213zm10.108-2.656h2.022c.088-1.25.957-2.041 2.304-2.041 1.338 0 2.208.781 2.208 1.855 0 .987-.42 1.543-1.602 2.256-1.338.801-1.934 1.68-1.885 3.086l.01.742h2.021v-.586c0-.986.362-1.504 1.622-2.246 1.289-.771 2.05-1.836 2.05-3.34 0-2.119-1.738-3.652-4.316-3.652-2.832 0-4.346 1.68-4.434 3.926zm4.19 10.508c.898 0 1.504-.596 1.504-1.485 0-.908-.606-1.504-1.504-1.504-.899 0-1.514.596-1.514 1.504 0 .889.615 1.485 1.514 1.485zM28.37 142.893h-4.882v-3.391h4.628v-1.094h-4.628v-3.165h4.881v-1.107h-6.111V144h6.111v-1.107zm4.182.205c-.855 0-1.49-.438-1.49-1.19 0-.738.492-1.128 1.613-1.203l1.982-.13v.677c0 1.053-.895 1.846-2.105 1.846zm-.219 1.032c.984 0 1.791-.431 2.27-1.217h.109V144h1.121v-5.045c0-1.531-1.005-2.454-2.803-2.454-1.572 0-2.734.779-2.891 1.962h1.19c.163-.581.779-.916 1.66-.916 1.1 0 1.668.499 1.668 1.408v.67l-2.126.13c-1.715.102-2.686.861-2.686 2.181 0 1.346 1.06 2.194 2.488 2.194zm5.509-.13h1.176v-4.566c0-1.039.813-1.791 1.934-1.791.233 0 .657.041.752.068v-1.176a5.167 5.167 0 0 0-.588-.034c-.977 0-1.825.506-2.044 1.224h-.109v-1.094h-1.121V144zm5.208 0h1.176v-4.361c0-1.292.779-2.078 2.071-2.078 1.176 0 1.736.628 1.736 1.955V144h1.176v-4.771c0-1.75-.923-2.728-2.577-2.728-1.128 0-1.982.478-2.352 1.292h-.109v-1.162H43.05V144zm12.426-9.208v1.839h-1.237v.984h1.237v4.471c0 1.408.608 1.969 2.126 1.969.232 0 .444-.028.677-.069v-.991a4.609 4.609 0 0 1-.534.027c-.765 0-1.093-.369-1.093-1.237v-4.17h1.709v-.984h-1.71v-1.839h-1.175zM59.973 144h1.176v-4.361c0-1.244.793-2.078 2.112-2.078 1.196 0 1.77.649 1.77 1.955V144h1.176v-4.771c0-1.73-.936-2.728-2.611-2.728-1.128 0-1.969.478-2.338 1.292h-.11v-4.088h-1.175V144zm11.155-6.46c1.17 0 1.948.861 1.976 2.167h-4.06c.088-1.306.908-2.167 2.084-2.167zm1.942 4.553c-.308.649-.95.998-1.9.998-1.252 0-2.065-.923-2.127-2.379v-.055h5.298v-.451c0-2.29-1.21-3.705-3.2-3.705-2.023 0-3.321 1.504-3.321 3.821 0 2.331 1.278 3.808 3.322 3.808 1.613 0 2.748-.773 3.103-2.037H73.07zM76.022 144h1.176v-4.566c0-1.039.745-1.873 1.709-1.873.93 0 1.538.56 1.538 1.435V144h1.175v-4.737c0-.937.684-1.702 1.71-1.702 1.038 0 1.551.533 1.551 1.62V144h1.176v-5.093c0-1.545-.84-2.406-2.345-2.406-1.018 0-1.86.513-2.256 1.292h-.109c-.342-.766-1.04-1.292-2.037-1.292-.984 0-1.723.472-2.058 1.292h-.11v-1.162h-1.12V144zm15.83 0h1.176v-7.369h-1.176V144zm.588-8.866c.451 0 .82-.369.82-.821a.822.822 0 0 0-.82-.82.823.823 0 0 0-.82.82c0 .452.369.821.82.821zM95.105 144h1.176v-4.361c0-1.292.779-2.078 2.071-2.078 1.176 0 1.736.628 1.736 1.955V144h1.176v-4.771c0-1.75-.923-2.728-2.577-2.728-1.128 0-1.983.478-2.352 1.292h-.109v-1.162h-1.121V144zm-66.9 11.887c-.205-1.313-1.299-2.386-3.09-2.386-2.064 0-3.377 1.49-3.377 3.787 0 2.345 1.32 3.842 3.384 3.842 1.77 0 2.871-.998 3.083-2.352h-1.19c-.218.834-.909 1.292-1.9 1.292-1.312 0-2.16-1.08-2.16-2.782 0-1.668.834-2.727 2.16-2.727 1.06 0 1.71.594 1.9 1.326h1.19zm1.64 5.113h1.175v-4.361c0-1.244.794-2.078 2.113-2.078 1.196 0 1.77.649 1.77 1.955V161h1.176v-4.771c0-1.73-.936-2.728-2.611-2.728-1.128 0-1.969.478-2.338 1.292h-.11v-4.088h-1.175V161zm10.485-.902c-.854 0-1.49-.438-1.49-1.19 0-.738.492-1.128 1.613-1.203l1.983-.13v.677c0 1.053-.896 1.846-2.106 1.846zm-.219 1.032c.985 0 1.791-.431 2.27-1.217h.11V161h1.12v-5.045c0-1.531-1.005-2.454-2.802-2.454-1.573 0-2.735.779-2.892 1.962h1.19c.164-.581.779-.916 1.66-.916 1.101 0 1.669.499 1.669 1.408v.67l-2.126.13c-1.716.102-2.687.861-2.687 2.181 0 1.346 1.06 2.194 2.488 2.194zm5.578-.13h1.175v-10.295H45.69V161zm3.362 0h1.176v-10.295H49.05V161zm6.233-6.46c1.17 0 1.949.861 1.976 2.167H53.2c.088-1.306.909-2.167 2.084-2.167zm1.942 4.553c-.308.649-.95.998-1.9.998-1.252 0-2.065-.923-2.127-2.379v-.055h5.298v-.451c0-2.29-1.21-3.705-3.199-3.705-2.023 0-3.322 1.504-3.322 3.821 0 2.331 1.278 3.808 3.322 3.808 1.613 0 2.748-.773 3.104-2.037h-1.176zM60.178 161h1.176v-4.361c0-1.292.779-2.078 2.071-2.078 1.176 0 1.736.628 1.736 1.955V161h1.176v-4.771c0-1.75-.923-2.728-2.577-2.728-1.128 0-1.982.478-2.352 1.292H61.3v-1.162h-1.121V161zm13.315-3.794c0 1.606-.82 2.646-2.187 2.646s-2.133-1.04-2.133-2.646c0-1.606.766-2.645 2.133-2.645 1.36 0 2.187 1.039 2.187 2.645zm-2.132 6.624c2.01 0 3.28-1.053 3.28-2.7v-7.499h-1.12v1.169h-.11c-.423-.793-1.333-1.299-2.365-1.299-1.893 0-3.09 1.497-3.09 3.705s1.183 3.685 3.09 3.685c1.012 0 1.846-.458 2.31-1.272h.11v1.449c0 1.087-.786 1.737-2.105 1.737-1.06 0-1.716-.39-1.846-.992H68.27c.177 1.217 1.312 2.017 3.09 2.017zm8.27-9.29c1.17 0 1.948.861 1.976 2.167h-4.06c.088-1.306.908-2.167 2.084-2.167zm1.942 4.553c-.308.649-.95.998-1.9.998-1.252 0-2.065-.923-2.127-2.379v-.055h5.298v-.451c0-2.29-1.21-3.705-3.2-3.705-2.023 0-3.321 1.504-3.321 3.821 0 2.331 1.278 3.808 3.322 3.808 1.613 0 2.748-.773 3.103-2.037h-1.175zm2.78-3.446c0 1.067.63 1.662 2.01 1.997l1.265.307c.786.192 1.17.533 1.17 1.039 0 .677-.712 1.149-1.703 1.149-.943 0-1.531-.397-1.73-1.019h-1.21c.13 1.224 1.258 2.01 2.9 2.01 1.674 0 2.952-.909 2.952-2.229 0-1.059-.67-1.661-2.057-1.996l-1.135-.273c-.868-.212-1.278-.527-1.278-1.032 0-.657.683-1.101 1.558-1.101.889 0 1.463.39 1.62.978h1.162c-.157-1.21-1.23-1.976-2.775-1.976-1.566 0-2.748.923-2.748 2.146zm8.005 7.862 1.011-3.89h-1.38l-.657 3.89h1.026zm10.908-2.379c1.866 0 3.09-1.511 3.09-3.815 0-2.317-1.217-3.814-3.09-3.814-1.012 0-1.907.499-2.31 1.292h-.11v-4.088H99.67V161h1.121v-1.176h.11c.465.821 1.34 1.306 2.365 1.306zm-.273-6.569c1.346 0 2.146 1.032 2.146 2.754 0 1.723-.8 2.755-2.146 2.755-1.34 0-2.174-1.052-2.174-2.755 0-1.702.834-2.754 2.174-2.754zm11.141-.93h-1.175v4.361c0 1.292-.78 2.065-2.079 2.065-1.175 0-1.736-.616-1.736-1.942v-4.484h-1.176v4.771c0 1.744.93 2.728 2.584 2.728 1.128 0 1.983-.465 2.352-1.285h.109V161h1.121v-7.369zm2.679 10.042c1.306 0 1.894-.513 2.523-2.222l2.877-7.82h-1.251l-2.016 6.063h-.11l-2.023-6.063h-1.271l2.727 7.376-.137.437c-.307.889-.676 1.217-1.353 1.217a2.86 2.86 0 0 1-.492-.034v1.005c.164.027.369.041.526.041zm-94.877 8.974c0 1.067.63 1.662 2.01 1.997l1.265.307c.786.192 1.169.533 1.169 1.039 0 .677-.711 1.149-1.702 1.149-.944 0-1.532-.397-1.73-1.019h-1.21c.13 1.224 1.258 2.01 2.899 2.01 1.674 0 2.953-.909 2.953-2.229 0-1.059-.67-1.661-2.058-1.996l-1.134-.273c-.869-.212-1.279-.527-1.279-1.032 0-.657.684-1.101 1.559-1.101.888 0 1.463.39 1.62.978h1.162c-.157-1.21-1.23-1.976-2.775-1.976-1.566 0-2.748.923-2.748 2.146zM32.3 177.07c-1.395 0-2.18-1.011-2.18-2.755 0-1.75.785-2.754 2.18-2.754 1.394 0 2.18 1.004 2.18 2.754 0 1.744-.786 2.755-2.18 2.755zm0 1.06c2.099 0 3.397-1.449 3.397-3.815 0-2.372-1.298-3.814-3.397-3.814-2.099 0-3.398 1.442-3.398 3.814 0 2.366 1.3 3.815 3.398 3.815zm5.078-.13h1.176v-4.566c0-1.039.745-1.873 1.709-1.873.93 0 1.538.56 1.538 1.435V178h1.176v-4.737c0-.937.683-1.702 1.709-1.702 1.039 0 1.551.533 1.551 1.62V178h1.176v-5.093c0-1.545-.84-2.406-2.344-2.406-1.02 0-1.86.513-2.256 1.292h-.11c-.342-.766-1.039-1.292-2.037-1.292-.984 0-1.722.472-2.057 1.292h-.11v-1.162h-1.121V178zm14.956-6.46c1.17 0 1.948.861 1.976 2.167h-4.06c.088-1.306.908-2.167 2.084-2.167zm1.942 4.553c-.308.649-.95.998-1.9.998-1.252 0-2.065-.923-2.127-2.379v-.055h5.298v-.451c0-2.29-1.21-3.705-3.2-3.705-2.023 0-3.321 1.504-3.321 3.821 0 2.331 1.278 3.808 3.322 3.808 1.613 0 2.748-.773 3.103-2.037h-1.175zm3.444-7.301v1.839h-1.237v.984h1.237v4.471c0 1.408.608 1.969 2.126 1.969.232 0 .444-.028.677-.069v-.991a4.608 4.608 0 0 1-.534.027c-.765 0-1.093-.369-1.093-1.237v-4.17h1.709v-.984h-1.71v-1.839H57.72zM62.216 178h1.176v-4.361c0-1.244.793-2.078 2.112-2.078 1.196 0 1.77.649 1.77 1.955V178h1.176v-4.771c0-1.73-.936-2.728-2.61-2.728-1.129 0-1.97.478-2.339 1.292h-.11v-4.088h-1.175V178zm8.243 0h1.176v-7.369h-1.176V178zm.588-8.866c.451 0 .82-.369.82-.821a.822.822 0 0 0-.82-.82.823.823 0 0 0-.82.82c0 .452.369.821.82.821zM73.712 178h1.176v-4.361c0-1.292.78-2.078 2.071-2.078 1.176 0 1.737.628 1.737 1.955V178h1.175v-4.771c0-1.75-.922-2.728-2.577-2.728-1.128 0-1.982.478-2.351 1.292h-.11v-1.162h-1.12V178zm13.316-3.794c0 1.606-.82 2.646-2.188 2.646-1.367 0-2.133-1.04-2.133-2.646 0-1.606.766-2.645 2.133-2.645 1.36 0 2.188 1.039 2.188 2.645zm-2.133 6.624c2.01 0 3.281-1.053 3.281-2.7v-7.499h-1.121v1.169h-.11c-.423-.793-1.332-1.299-2.365-1.299-1.893 0-3.09 1.497-3.09 3.705s1.183 3.685 3.09 3.685c1.012 0 1.846-.458 2.31-1.272H87v1.449c0 1.087-.786 1.737-2.105 1.737-1.06 0-1.716-.39-1.846-.992h-1.244c.178 1.217 1.313 2.017 3.09 2.017zm15.215-7.943c-.205-1.313-1.3-2.386-3.09-2.386-2.064 0-3.377 1.49-3.377 3.787 0 2.345 1.32 3.842 3.384 3.842 1.77 0 2.87-.998 3.083-2.352h-1.19c-.218.834-.909 1.292-1.9 1.292-1.313 0-2.16-1.08-2.16-2.782 0-1.668.834-2.727 2.16-2.727 1.06 0 1.709.594 1.9 1.326h1.19zm4.599 4.183c-1.394 0-2.18-1.011-2.18-2.755 0-1.75.786-2.754 2.18-2.754 1.395 0 2.181 1.004 2.181 2.754 0 1.744-.786 2.755-2.181 2.755zm0 1.06c2.099 0 3.398-1.449 3.398-3.815 0-2.372-1.299-3.814-3.398-3.814-2.098 0-3.397 1.442-3.397 3.814 0 2.366 1.299 3.815 3.397 3.815zm8.107-1.06c-1.395 0-2.181-1.011-2.181-2.755 0-1.75.786-2.754 2.181-2.754 1.394 0 2.181 1.004 2.181 2.754 0 1.744-.787 2.755-2.181 2.755zm0 1.06c2.099 0 3.397-1.449 3.397-3.815 0-2.372-1.298-3.814-3.397-3.814-2.099 0-3.398 1.442-3.398 3.814 0 2.366 1.299 3.815 3.398 3.815zm5.146-.13h1.176v-10.295h-1.176V178z" fill="#fff"/><g clip-path="url(#b)"><path fill-rule="evenodd" clip-rule="evenodd" d="M22.612 1.461c.197.38.46.903.787 1.55 3.095 6.148 11.826 23.492 22.778 34.595l-8.042-1.097-.27 1.982 11 1.5 1.134.155V29h-2v7.602C37.121 25.789 28.367 8.422 25.197 2.134c-.333-.661-.604-1.2-.81-1.595l-1.775.922z" fill="#fff"/></g></g><defs><clipPath id="a"><path d="M0 44C0 19.7 19.7 0 44 0h72c24.301 0 44 19.7 44 44v182c0 24.301-19.699 44-44 44H44c-24.3 0-44-19.699-44-44V44z" fill="#fff"/></clipPath><clipPath id="b"><path fill="#fff" d="M0 0h60v40H0z"/></clipPath></defs></svg>