<svg width="58" height="58" viewBox="0 0 58 58" fill="none" xmlns="http://www.w3.org/2000/svg"><path d="M21.636 44C35.6 44 43.235 32.075 43.235 21.733c0-.338-.007-.675-.022-1.011A15.71 15.71 0 0 0 47 16.669a14.782 14.782 0 0 1-4.36 1.232 7.817 7.817 0 0 0 3.339-4.328 14.954 14.954 0 0 1-4.82 1.9C39.772 13.95 37.8 13 35.616 13c-4.192 0-7.591 3.505-7.591 7.825 0 .614.066 1.211.197 1.784-6.31-.327-11.904-3.441-15.648-8.176a7.992 7.992 0 0 0-1.028 3.933c0 2.715 1.34 5.112 3.378 6.514a7.364 7.364 0 0 1-3.438-.979l-.001.1c0 3.79 2.617 6.955 6.09 7.672a7.386 7.386 0 0 1-3.428.134c.966 3.11 3.768 5.372 7.091 5.436-2.598 2.1-5.871 3.35-9.428 3.35-.605 0-1.21-.036-1.811-.109C13.36 42.704 17.349 44 21.637 44" fill="#fff"/></svg>