<svg width="58" height="58" viewBox="0 0 58 58" fill="none" xmlns="http://www.w3.org/2000/svg"><path d="M42.19 25.392c.27 0 .538-.015.805-.04L43 19.86a8.696 8.696 0 0 1-5.438-2.457A8.834 8.834 0 0 1 34.956 12h-4.687l-.05 23.039c0 2.826-2.474 5.053-5.277 5.053a5.052 5.052 0 0 1-3.587-1.499 5.139 5.139 0 0 1-1.487-3.618 5.14 5.14 0 0 1 1.486-3.618 5.052 5.052 0 0 1 3.588-1.499c.21 0 .41.038.614.062v-4.94c-.203-.013-.406-.032-.614-.032a9.881 9.881 0 0 0-5.523 1.69 10.008 10.008 0 0 0-3.661 4.5 10.106 10.106 0 0 0-.566 5.792 10.053 10.053 0 0 0 2.72 5.133 9.915 9.915 0 0 0 5.09 2.744 9.862 9.862 0 0 0 5.744-.57 9.96 9.96 0 0 0 4.462-3.693 10.088 10.088 0 0 0 1.675-5.57V21.409a8.763 8.763 0 0 0 3.155 2.924 8.676 8.676 0 0 0 4.154 1.06z" fill="#fff"/></svg>