<svg width="207" height="85" viewBox="0 0 207 85" fill="none" xmlns="http://www.w3.org/2000/svg"><path fill-rule="evenodd" clip-rule="evenodd" d="M24.332 11.03a32.704 32.704 0 0 1 3.55-.001c9.586.505 17.32 5.535 22.586 11.58 5.194 5.964 8.359 13.347 8.359 19.177v1.933l-1.708.906c-4.938 2.62-10.043 3.736-16.015 2.18-1.91-.497-3.873-1.26-5.918-2.297.984 4.757.58 10.54-2.391 17.425l-5.902-2.548c3.344-7.748 2.591-13.145.946-16.836-1.655-3.714-4.36-6.076-6.08-7.578l-.124-.108-.062-.054 4.234-4.838.257.224c.05.045.104.09.158.138 7.068 6.127 12.279 9.15 16.503 10.251 3.416.89 6.385.573 9.507-.742-.6-3.738-2.814-8.65-6.612-13.01-4.43-5.085-10.646-8.992-18.077-9.383-8.766-.462-13.814 3.225-16.854 8.04-3.184 5.042-4.251 11.521-4.26 16.3.001 19.526 15.83 35.354 35.357 35.354s35.357-15.83 35.357-35.357c0-2.006-.167-3.97-.486-5.88C73.859 19.178 59.308 6.43 41.786 6.43a35.196 35.196 0 0 0-17.454 4.6zM0 41.786C0 18.708 18.708 0 41.786 0 62.5 0 79.69 15.07 82.997 34.846c.378 2.259.574 4.578.574 6.94 0 23.077-18.708 41.785-41.785 41.785C18.708 83.571 0 64.863 0 41.786z" fill="#D5FC51"/><path fill-rule="evenodd" clip-rule="evenodd" d="M53.611 52.204c7.126 3.897 15.27 6.371 21.559 5.673l.71 6.389c-8.176.908-17.71-2.242-25.353-6.422-3.876-2.12-7.418-4.586-10.215-7.114-2.72-2.459-5.036-5.244-6.007-8.063l6.078-2.093c.441 1.281 1.796 3.178 4.24 5.387 2.365 2.139 5.48 4.324 8.988 6.243zm-3.345-21.649c5.199-3.765 10.693-9.787 14.563-16.016l5.46 3.393c-4.255 6.848-10.298 13.518-16.253 17.83l-3.77-5.207zM38.063 15.238c5-3.89 8.27-7.167 11.557-11.367l5.062 3.962c-3.636 4.646-7.289 8.292-12.673 12.48l-3.947-5.075z" fill="#D5FC51"/><path fill-rule="evenodd" clip-rule="evenodd" d="M54.694 54.27c8.41-5.19 16.536-15.263 21.186-23.633l5.62 3.122c-4.966 8.937-13.763 20.017-23.43 25.981l-3.376-5.47z" fill="#D5FC51"/><path d="m131.832 14.282 2.026 11.123h-4.182l2.156-11.123zm5.023 26.895h20.644L145.245 1.332h-26.826L106 41.177h20.533l.662-3.099h9.054l.606 3.1zm49.548.319H206V19.03h-24.398v6.981h2.778c-.15.6-.388.955-.801 1.292-.413.338-.999.622-1.863.622-1.164 0-1.907-.289-2.628-.788-.722-.5-1.831-1.99-1.831-3.83v-1.83c0-1.84.61-3.275 1.553-4.052.944-.777 2.033-1.264 3.372-1.264 1.338 0 2.386.291 3.564 1.574H206v-.113c-.563-6.23-2.647-10.716-6.476-13.456C195.732 1.39 189.951 0 182.18 0c-8.372 0-15.312 1.057-19.742 4.773-4.392 3.678-6.604 8.066-6.604 15.76v1.165c0 7.104 2.017 11.741 4.608 14.707 2.181 2.497 6.944 5.202 12.708 5.202s8.99-1.928 10.433-3.704c1.235-1.52 2.386-3.552 2.82-6.77v10.363z" fill="#D5FC51"/><path fill-rule="evenodd" clip-rule="evenodd" d="M150.316 79.492c-4.011 3.24-10.275 4.86-18.794 4.86-8.594 0-14.84-1.62-18.736-4.86-3.858-3.278-5.787-8.398-5.787-15.362v-1.676c0-6.555 2.12-11.582 6.36-15.083 4.278-3.538 10.524-5.306 18.736-5.306 8.022 0 14.076 1.787 18.164 5.362 4.087 3.538 6.13 8.566 6.13 15.083v1.676c0 6.964-2.024 12.066-6.073 15.306zm-21.913-12.63c-.655-.775-.982-1.986-.982-3.632 0-1.66.327-2.868.982-3.62.663-.746 1.697-1.12 3.105-1.12h.339c1.324 0 2.34.41 3.048 1.23.715.827 1.072 2.034 1.072 3.621 0 1.55-.361 2.72-1.084 3.51-.715.79-1.731 1.185-3.048 1.185h-.338c-1.408 0-2.439-.391-3.094-1.174z" fill="#D5FC51"/><path d="m173.475 57.743 8.697 26.104h23.814V43.341H183.81s4.022 17.192 6.369 25.485l-9.127-25.485h-23.72v40.506h22.176s-3.989-17.487-6.033-26.104z" fill="#D5FC51"/></svg>