<svg version="1.0" xmlns="http://www.w3.org/2000/svg" width="1600" height="1600" viewBox="0 0 1200 1200"><path d="M572.5 153.6c-2.7.2-11.7 1.1-20 2C366.2 174.9 211 310.1 166 492.4c-9.2 37.4-12.4 64.8-12.4 107.1 0 34.2 1 47.3 6 76.5 29.5 173.4 161.2 314.6 332.8 357 37.4 9.2 64.8 12.4 107.1 12.4 34.2 0 47.3-1 76.5-6 173.4-29.5 314.6-161.2 357-332.8 9.2-37.4 12.4-64.8 12.4-107.1 0-34.2-1-47.3-6-76.5-19.2-112.6-82.6-214.9-175.9-283.6-62.8-46.2-135.7-74.6-216-83.9-13.3-1.5-63.2-2.8-75-1.9zm71.8 70.7c5.9.8 11.1 1.7 11.4 2.1 2.3 2.3-70 71.3-79.3 75.8-1.6.8-3.2.4-7.3-1.6-9-4.6-29.2-12.3-43.2-16.6-29.6-8.9-58.1-13.1-90.5-13.4-11.7 0-20.7-.5-20-.9.6-.4 7.4-4 15-7.8 41.2-20.9 84.2-33.4 132.1-38.4 16.7-1.8 66.3-1.3 81.8.8zm96.7 24.8c18.1 7.1 44.5 20.9 64 33.4 6.8 4.3 29.5 21 36.3 26.7l2.7 2.3-9.9 14.7c-17.8 26.3-36.1 49.7-57.2 73.3-12.6 14-45.6 47.2-46.2 46.5-.2-.3-4-5.9-8.5-12.5-21.4-31.5-45.5-58.2-76-84-5.1-4.3-8.9-8.1-8.5-8.5 35.4-31.1 72.7-69.3 90-92.2 1.5-2.1 3.3-3.6 3.8-3.4.6.2 4.8 1.9 9.5 3.7zm-270.5 92.8c45.5 6.8 88.1 25.9 127.5 57.1 22.1 17.5 51.7 49.7 68 74 13.6 20.3 27 46.1 34.5 66.5 3.4 9.1 10.5 34.8 10.5 38 0 3-28.2 11.4-45 13.5-59.2 7.1-128.2-25.4-222-104.8-7.9-6.7-14.8-12.2-15.2-12.2-.9 0-44.8 49.9-44.8 50.9 0 .4 4 4.2 9 8.5 38 33.1 60.7 69.9 69.2 111.8 2 10 2.3 14.2 2.3 35.3-.1 20.6-.4 25.7-2.3 36-4.1 21.6-9.8 41.1-18.2 62.3-2.8 7-3.1 8.5-1.9 9.3.8.4 14.7 6.5 30.9 13.5s29.8 12.8 30.1 13c.3.2 2.7-5.2 5.3-11.9 13.7-34.8 21.8-67.6 24.7-99.8 1.4-16.3.6-46.6-1.6-59.8-.8-5.2-1.4-9.5-1.2-9.7.1-.2 2.7 3.3 5.7 7.8 47.8 72.3 171.2 151.2 287.2 183.7 18.8 5.2 34 8.6 52.2 11.6 8.2 1.4 15.1 2.7 15.3 2.9.7.6-13 15.9-24.7 27.6-63.4 63.5-146.1 101.5-236.8 109.1-19.9 1.6-59.2.6-78.9-2-41.8-5.7-76.7-16.1-114.3-34.3-19.3-9.3-27.9-14.2-45-25.4-69.1-45.7-122.5-114.6-148.7-191.9-15.2-45-21.2-84.1-20-131.9 2.5-100.1 39.7-182.9 99.7-221.8 25.4-16.5 56.1-26.4 90.5-29.2 11.7-.9 45.4.4 58 2.3zm431.1 30.6c22.6 29.9 43.7 69.8 55.3 104.8l3.3 9.8-8.3 13.7c-33.7 56.1-76 110.4-121.8 156.3-27 26.9-48.3 45.3-70.9 61.2l-8.3 5.9-16.9-9.1c-28.5-15.3-51.8-29.9-73-45.7l-10.5-7.9 8.5-.7c25.8-2.3 47.5-6.9 68-14.4 5.8-2.1 20.4-8.8 32.5-14.9l22-11 .3-10.5c.8-25.6-4-55.6-13.3-83.8l-5.5-16.7 5.7-5c41.1-35.7 83.6-83.6 117.7-132.8 3.8-5.4 7.2-9.5 7.6-9 .4.4 3.8 4.8 7.6 9.8zm75.1 238.7c-1.4 53.3-13 101.9-35.3 148.6l-6.4 13.4-11.7-.7c-31.6-1.8-68.2-8.6-96.1-18-.8-.3 1.2-2.6 5-5.7 32.6-26.9 76.6-72.2 108.3-111.8 10.5-13.1 28.8-37.4 33-43.8 1.5-2.3 3-4.2 3.3-4.2.3 0 .2 10-.1 22.2z"/></svg>