<svg width="160" height="270" viewBox="0 0 160 270" fill="none" xmlns="http://www.w3.org/2000/svg">
<g clip-path="url(#clip0)">
<path d="M0 44C0 19.6995 19.6995 0 44 0H116C140.301 0 160 19.6995 160 44V226C160 250.301 140.301 270 116 270H44C19.6995 270 0 250.301 0 226V44Z" fill="#0728EF"/>
<path d="M34.3691 66V51.9082H32.1914V57.8262H24.9551V51.9082H22.7676V66H24.9551V59.8184H32.1914V66H34.3691ZM41.9873 64.3398C40.1612 64.3398 39.1358 63.002 39.1358 60.6777C39.1358 58.373 40.1612 57.0254 41.9873 57.0254C43.8038 57.0254 44.8389 58.373 44.8389 60.6777C44.8389 62.9922 43.8038 64.3398 41.9873 64.3398ZM41.9873 66.2051C45.0928 66.2051 46.9971 64.125 46.9971 60.6777C46.9971 57.25 45.083 55.1602 41.9873 55.1602C38.8819 55.1602 36.9678 57.25 36.9678 60.6777C36.9678 64.125 38.8721 66.2051 41.9873 66.2051ZM62.7989 55.3652H60.6993L58.8048 63.4805H58.6388L56.4513 55.3652H54.4395L52.252 63.4805H52.0958L50.1915 55.3652H48.0626L50.9923 66H53.1505L55.338 58.168H55.504L57.7013 66H59.879L62.7989 55.3652ZM70.8478 52.7871V55.4141H69.0998V57.1816H70.8478V63.1875C70.8478 65.2383 71.7755 66.0586 74.1095 66.0586C74.5197 66.0586 74.9005 66.0098 75.2326 65.9512V64.2031C74.9396 64.2324 74.7736 64.252 74.4513 64.252C73.4064 64.252 72.9474 63.7637 72.9474 62.6504V57.1816H75.3302V55.4141H72.9474V52.7871H70.8478ZM81.9328 64.3398C80.1066 64.3398 79.0812 63.002 79.0812 60.6777C79.0812 58.373 80.1066 57.0254 81.9328 57.0254C83.7492 57.0254 84.7844 58.373 84.7844 60.6777C84.7844 62.9922 83.7492 64.3398 81.9328 64.3398ZM81.9328 66.2051C85.0383 66.2051 86.9426 64.125 86.9426 60.6777C86.9426 57.25 85.0285 55.1602 81.9328 55.1602C78.8273 55.1602 76.9133 57.25 76.9133 60.6777C76.9133 64.125 78.8176 66.2051 81.9328 66.2051ZM22.2793 82.373C22.2793 83.9551 23.2168 84.8633 25.2383 85.3418L27.0938 85.7715C28.1582 86.0254 28.6562 86.4355 28.6562 87.0703C28.6562 87.9199 27.7285 88.5059 26.4199 88.5059C25.1504 88.5059 24.3691 87.998 24.1055 87.1777H22.0059C22.1914 89.0625 23.8418 90.2051 26.3711 90.2051C28.9102 90.2051 30.7754 88.8672 30.7754 86.8652C30.7754 85.3027 29.8281 84.4336 27.8066 83.9648L26.0391 83.5547C24.8867 83.291 24.3496 82.8906 24.3496 82.2559C24.3496 81.4258 25.2383 80.8691 26.4102 80.8691C27.6016 80.8691 28.3633 81.3672 28.5586 82.1484H30.5703C30.3652 80.2734 28.8027 79.1602 26.4102 79.1602C24.0078 79.1602 22.2793 80.4883 22.2793 82.373ZM38.6573 79.1895C37.212 79.1895 35.962 79.9121 35.3174 81.123H35.1612V79.3652H33.1397V93.4473H35.2393V88.3887H35.4053C35.962 89.5117 37.1631 90.1758 38.6768 90.1758C41.3623 90.1758 43.0713 88.0566 43.0713 84.6777C43.0713 81.2988 41.3623 79.1895 38.6573 79.1895ZM38.0616 88.291C36.3038 88.291 35.2002 86.9043 35.2002 84.6875C35.2002 82.4609 36.3038 81.0742 38.0713 81.0742C39.8487 81.0742 40.9131 82.4316 40.9131 84.6777C40.9131 86.9336 39.8487 88.291 38.0616 88.291ZM49.8009 80.9473C51.3536 80.9473 52.3692 82.0312 52.418 83.7012H47.047C47.1641 82.041 48.2481 80.9473 49.8009 80.9473ZM52.4083 87.1289C52.0177 87.959 51.1485 88.418 49.879 88.418C48.1993 88.418 47.1153 87.2363 47.047 85.3711V85.2539H54.5567V84.5215C54.5567 81.1816 52.7696 79.1602 49.8106 79.1602C46.8126 79.1602 44.9083 81.3184 44.9083 84.7168C44.9083 88.1152 46.7735 90.2051 49.8204 90.2051C52.252 90.2051 53.9513 89.0332 54.4298 87.1289H52.4083ZM56.9113 90H59.0109V83.7793C59.0109 82.1191 60.046 81.084 61.7355 81.084C63.298 81.084 64.0597 81.9336 64.0597 83.6426V90H66.1593V83.1152C66.1593 80.5859 64.8214 79.1602 62.4484 79.1602C60.8468 79.1602 59.6066 79.873 59.089 81.0547H58.9327V79.3652H56.9113V90ZM72.84 90.1758C74.3048 90.1758 75.5451 89.4824 76.1798 88.3203H76.3459V90H78.3576V75.2148H76.258V81.0547H76.1017C75.5255 79.8828 74.2951 79.1895 72.84 79.1895C70.1545 79.1895 68.4259 81.3184 68.4259 84.6777C68.4259 88.0469 70.1349 90.1758 72.84 90.1758ZM73.4357 81.0742C75.1935 81.0742 76.297 82.4707 76.297 84.6875C76.297 86.9141 75.2033 88.291 73.4357 88.291C71.6584 88.291 70.5939 86.9336 70.5939 84.6777C70.5939 82.4414 71.6681 81.0742 73.4357 81.0742ZM87.7053 93.8672C89.8733 93.8672 90.8791 93.0273 91.7873 90.4395L95.7522 79.3652H93.5256L90.8694 87.8125H90.7034L88.0373 79.3652H85.7522L89.5998 90.0391L89.4436 90.5566C89.0823 91.6309 88.5159 92.0508 87.5198 92.0508C87.3245 92.0508 87.0022 92.041 86.8362 92.0117V93.8184C87.0315 93.8574 87.5295 93.8672 87.7053 93.8672ZM101.818 88.3398C99.9915 88.3398 98.9661 87.002 98.9661 84.6777C98.9661 82.373 99.9915 81.0254 101.818 81.0254C103.634 81.0254 104.669 82.373 104.669 84.6777C104.669 86.9922 103.634 88.3398 101.818 88.3398ZM101.818 90.2051C104.923 90.2051 106.827 88.125 106.827 84.6777C106.827 81.25 104.913 79.1602 101.818 79.1602C98.7122 79.1602 96.7981 81.25 96.7981 84.6777C96.7981 88.125 98.7024 90.2051 101.818 90.2051ZM118.362 79.3652H116.272V85.5859C116.272 87.2559 115.227 88.2617 113.537 88.2617C111.985 88.2617 111.194 87.4414 111.194 85.7227V79.3652H109.094V86.25C109.094 88.7695 110.491 90.2051 112.854 90.2051C114.455 90.2051 115.666 89.5215 116.184 88.3105H116.35V90H118.362V79.3652ZM121.253 90H123.353V83.7207C123.353 82.2266 124.476 81.2207 126.058 81.2207C126.41 81.2207 127.054 81.2891 127.22 81.3477V79.2773C126.995 79.2188 126.595 79.1895 126.292 79.1895C124.906 79.1895 123.734 79.9512 123.431 80.9961H123.275V79.3652H121.253V90ZM31.8887 114H34.2129L29.125 99.9082H26.7715L21.6836 114H23.9297L25.2285 110.26H30.5996L31.8887 114ZM27.8359 102.467H28.002L30.043 108.424H25.7852L27.8359 102.467ZM43.0127 108.551C43.0127 110.68 41.9288 112.027 40.1319 112.027C38.3252 112.027 37.3096 110.67 37.3096 108.551C37.3096 106.432 38.3252 105.074 40.1319 105.074C41.919 105.074 43.0127 106.432 43.0127 108.551ZM40.1612 118.062C43.169 118.062 45.0733 116.52 45.0733 114.088V103.365H43.0616V105.064H42.8955C42.2998 103.912 41.0205 103.189 39.5557 103.189C36.8409 103.189 35.1416 105.318 35.1416 108.561C35.1416 111.744 36.8213 113.844 39.5362 113.844C41.001 113.844 42.1729 113.209 42.8174 112.057H42.9737V114.098C42.9737 115.504 41.9385 116.334 40.1905 116.334C38.7745 116.334 37.8858 115.836 37.71 115.064H35.5616C35.7862 116.871 37.5049 118.062 40.1612 118.062ZM52.4473 112.34C50.6212 112.34 49.5958 111.002 49.5958 108.678C49.5958 106.373 50.6212 105.025 52.4473 105.025C54.2638 105.025 55.2989 106.373 55.2989 108.678C55.2989 110.992 54.2638 112.34 52.4473 112.34ZM52.4473 114.205C55.5528 114.205 57.4571 112.125 57.4571 108.678C57.4571 105.25 55.543 103.16 52.4473 103.16C49.3419 103.16 47.4278 105.25 47.4278 108.678C47.4278 112.125 49.3321 114.205 52.4473 114.205ZM59.8214 114H61.921V107.779C61.921 106.119 62.9562 105.084 64.6456 105.084C66.2081 105.084 66.9698 105.934 66.9698 107.643V114H69.0695V107.115C69.0695 104.586 67.7316 103.16 65.3585 103.16C63.757 103.16 62.5167 103.873 61.9991 105.055H61.8429V103.365H59.8214V114ZM83.1926 114.342C86.3371 114.342 88.6516 112.486 89.0422 109.703H86.8645C86.4738 111.295 85.0578 112.301 83.1926 112.301C80.6535 112.301 79.0715 110.24 79.0715 106.959C79.0715 103.668 80.6535 101.607 83.1828 101.607C85.0383 101.607 86.4543 102.721 86.8645 104.449H89.0422C88.6906 101.578 86.2883 99.5664 83.1828 99.5664C79.2668 99.5664 76.8352 102.389 76.8352 106.959C76.8352 111.52 79.2766 114.342 83.1926 114.342ZM96.0061 112.34C94.1799 112.34 93.1545 111.002 93.1545 108.678C93.1545 106.373 94.1799 105.025 96.0061 105.025C97.8225 105.025 98.8577 106.373 98.8577 108.678C98.8577 110.992 97.8225 112.34 96.0061 112.34ZM96.0061 114.205C99.1116 114.205 101.016 112.125 101.016 108.678C101.016 105.25 99.1018 103.16 96.0061 103.16C92.9006 103.16 90.9866 105.25 90.9866 108.678C90.9866 112.125 92.8909 114.205 96.0061 114.205ZM103.419 114H105.509V103.365H103.419V114ZM104.464 101.5C105.245 101.5 105.822 100.943 105.822 100.221C105.822 99.4883 105.245 98.9316 104.464 98.9316C103.683 98.9316 103.107 99.4883 103.107 100.221C103.107 100.943 103.683 101.5 104.464 101.5ZM108.43 114H110.53V107.779C110.53 106.119 111.565 105.084 113.254 105.084C114.817 105.084 115.578 105.934 115.578 107.643V114H117.678V107.115C117.678 104.586 116.34 103.16 113.967 103.16C112.366 103.16 111.125 103.873 110.608 105.055H110.451V103.365H108.43V114ZM120.228 106.373C120.228 107.955 121.165 108.863 123.187 109.342L125.042 109.771C126.107 110.025 126.605 110.436 126.605 111.07C126.605 111.92 125.677 112.506 124.369 112.506C123.099 112.506 122.318 111.998 122.054 111.178H119.954C120.14 113.062 121.79 114.205 124.32 114.205C126.859 114.205 128.724 112.867 128.724 110.865C128.724 109.303 127.777 108.434 125.755 107.965L123.988 107.555C122.835 107.291 122.298 106.891 122.298 106.256C122.298 105.426 123.187 104.869 124.359 104.869C125.55 104.869 126.312 105.367 126.507 106.148H128.519C128.314 104.273 126.751 103.16 124.359 103.16C121.956 103.16 120.228 104.488 120.228 106.373ZM130.336 103.717H132.358C132.446 102.467 133.315 101.676 134.662 101.676C136 101.676 136.87 102.457 136.87 103.531C136.87 104.518 136.45 105.074 135.268 105.787C133.93 106.588 133.334 107.467 133.383 108.873L133.393 109.615H135.414V109.029C135.414 108.043 135.776 107.525 137.036 106.783C138.325 106.012 139.086 104.947 139.086 103.443C139.086 101.324 137.348 99.791 134.77 99.791C131.938 99.791 130.424 101.471 130.336 103.717ZM134.526 114.225C135.424 114.225 136.03 113.629 136.03 112.74C136.03 111.832 135.424 111.236 134.526 111.236C133.627 111.236 133.012 111.832 133.012 112.74C133.012 113.629 133.627 114.225 134.526 114.225Z" fill="white"/>
<path d="M28.3691 142.893H23.4883V139.502H28.1162V138.408H23.4883V135.243H28.3691V134.136H22.2578V144H28.3691V142.893ZM32.5518 143.098C31.6973 143.098 31.0616 142.66 31.0616 141.908C31.0616 141.17 31.5538 140.78 32.6748 140.705L34.6573 140.575V141.252C34.6573 142.305 33.7618 143.098 32.5518 143.098ZM32.333 144.13C33.3174 144.13 34.1241 143.699 34.6026 142.913H34.712V144H35.833V138.955C35.833 137.424 34.8282 136.501 33.0303 136.501C31.458 136.501 30.2959 137.28 30.1387 138.463H31.3282C31.4922 137.882 32.1075 137.547 32.9893 137.547C34.0899 137.547 34.6573 138.046 34.6573 138.955V139.625L32.5313 139.755C30.8155 139.857 29.8448 140.616 29.8448 141.936C29.8448 143.282 30.9043 144.13 32.333 144.13ZM37.8419 144H39.0177V139.434C39.0177 138.395 39.8311 137.643 40.9522 137.643C41.1846 137.643 41.6085 137.684 41.7042 137.711V136.535C41.5538 136.515 41.3077 136.501 41.1163 136.501C40.1388 136.501 39.2911 137.007 39.0723 137.725H38.963V136.631H37.8419V144ZM43.0499 144H44.2257V139.639C44.2257 138.347 45.005 137.561 46.297 137.561C47.4728 137.561 48.0333 138.189 48.0333 139.516V144H49.2091V139.229C49.2091 137.479 48.2862 136.501 46.632 136.501C45.504 136.501 44.6495 136.979 44.2804 137.793H44.171V136.631H43.0499V144ZM55.4758 134.792V136.631H54.2385V137.615H55.4758V142.086C55.4758 143.494 56.0842 144.055 57.6018 144.055C57.8342 144.055 58.0461 144.027 58.2785 143.986V142.995C58.0598 143.016 57.9572 143.022 57.7453 143.022C56.9797 143.022 56.6516 142.653 56.6516 141.785V137.615H58.3605V136.631H56.6516V134.792H55.4758ZM59.9729 144H61.1487V139.639C61.1487 138.395 61.9416 137.561 63.261 137.561C64.4573 137.561 65.0315 138.21 65.0315 139.516V144H66.2073V139.229C66.2073 137.499 65.2707 136.501 63.5959 136.501C62.468 136.501 61.6272 136.979 61.258 137.793H61.1487V133.705H59.9729V144ZM71.1282 137.54C72.2971 137.54 73.0764 138.401 73.1038 139.707H69.0432C69.1321 138.401 69.9524 137.54 71.1282 137.54ZM73.0696 142.093C72.762 142.742 72.1194 143.091 71.1692 143.091C69.9182 143.091 69.1048 142.168 69.0432 140.712V140.657H74.3411V140.206C74.3411 137.916 73.1311 136.501 71.1419 136.501C69.1184 136.501 67.8196 138.005 67.8196 140.322C67.8196 142.653 69.0979 144.13 71.1419 144.13C72.7552 144.13 73.8899 143.357 74.2454 142.093H73.0696ZM76.0218 144H77.1976V139.434C77.1976 138.395 77.9427 137.561 78.9066 137.561C79.8363 137.561 80.4446 138.121 80.4446 138.996V144H81.6204V139.263C81.6204 138.326 82.304 137.561 83.3294 137.561C84.3685 137.561 84.8812 138.094 84.8812 139.181V144H86.057V138.907C86.057 137.362 85.2161 136.501 83.7122 136.501C82.6937 136.501 81.8529 137.014 81.4564 137.793H81.347C81.0052 137.027 80.3079 136.501 79.3099 136.501C78.3255 136.501 77.5872 136.973 77.2523 137.793H77.1429V136.631H76.0218V144ZM91.852 144H93.0277V136.631H91.852V144ZM92.4398 135.134C92.891 135.134 93.2602 134.765 93.2602 134.313C93.2602 133.862 92.891 133.493 92.4398 133.493C91.9887 133.493 91.6195 133.862 91.6195 134.313C91.6195 134.765 91.9887 135.134 92.4398 135.134ZM95.1049 144H96.2807V139.639C96.2807 138.347 97.06 137.561 98.352 137.561C99.5278 137.561 100.088 138.189 100.088 139.516V144H101.264V139.229C101.264 137.479 100.341 136.501 98.687 136.501C97.559 136.501 96.7045 136.979 96.3354 137.793H96.226V136.631H95.1049V144ZM28.2051 155.887C28 154.574 26.9062 153.501 25.1152 153.501C23.0508 153.501 21.7383 154.991 21.7383 157.288C21.7383 159.633 23.0576 161.13 25.1221 161.13C26.8926 161.13 27.9932 160.132 28.2051 158.778H27.0156C26.7969 159.612 26.1064 160.07 25.1152 160.07C23.8027 160.07 22.9551 158.99 22.9551 157.288C22.9551 155.62 23.7891 154.561 25.1152 154.561C26.1748 154.561 26.8242 155.155 27.0156 155.887H28.2051ZM29.8448 161H31.0205V156.639C31.0205 155.395 31.8135 154.561 33.1329 154.561C34.3291 154.561 34.9034 155.21 34.9034 156.516V161H36.0791V156.229C36.0791 154.499 35.1426 153.501 33.4678 153.501C32.3399 153.501 31.4991 153.979 31.1299 154.793H31.0205V150.705H29.8448V161ZM40.3302 160.098C39.4757 160.098 38.8399 159.66 38.8399 158.908C38.8399 158.17 39.3321 157.78 40.4532 157.705L42.4356 157.575V158.252C42.4356 159.305 41.5401 160.098 40.3302 160.098ZM40.1114 161.13C41.0958 161.13 41.9024 160.699 42.3809 159.913H42.4903V161H43.6114V155.955C43.6114 154.424 42.6065 153.501 40.8087 153.501C39.2364 153.501 38.0743 154.28 37.9171 155.463H39.1065C39.2706 154.882 39.8858 154.547 40.7677 154.547C41.8682 154.547 42.4356 155.046 42.4356 155.955V156.625L40.3096 156.755C38.5938 156.857 37.6231 157.616 37.6231 158.936C37.6231 160.282 38.6827 161.13 40.1114 161.13ZM45.6886 161H46.8644V150.705H45.6886V161ZM49.0509 161H50.2267V150.705H49.0509V161ZM55.2844 154.54C56.4533 154.54 57.2326 155.401 57.26 156.707H53.1994C53.2883 155.401 54.1086 154.54 55.2844 154.54ZM57.2258 159.093C56.9182 159.742 56.2756 160.091 55.3254 160.091C54.0744 160.091 53.2609 159.168 53.1994 157.712V157.657H58.4973V157.206C58.4973 154.916 57.2873 153.501 55.298 153.501C53.2746 153.501 51.9758 155.005 51.9758 157.322C51.9758 159.653 53.2541 161.13 55.298 161.13C56.9113 161.13 58.0461 160.357 58.4016 159.093H57.2258ZM60.178 161H61.3537V156.639C61.3537 155.347 62.133 154.561 63.425 154.561C64.6008 154.561 65.1614 155.189 65.1614 156.516V161H66.3371V156.229C66.3371 154.479 65.4143 153.501 63.76 153.501C62.6321 153.501 61.7776 153.979 61.4084 154.793H61.2991V153.631H60.178V161ZM73.4934 157.206C73.4934 158.812 72.6731 159.852 71.3059 159.852C69.9388 159.852 69.1731 158.812 69.1731 157.206C69.1731 155.6 69.9388 154.561 71.3059 154.561C72.6663 154.561 73.4934 155.6 73.4934 157.206ZM71.3606 163.83C73.3704 163.83 74.6419 162.777 74.6419 161.13V153.631H73.5208V154.8H73.4114C72.9876 154.007 72.0784 153.501 71.0462 153.501C69.1526 153.501 67.9563 154.998 67.9563 157.206C67.9563 159.414 69.1389 160.891 71.0462 160.891C72.0579 160.891 72.8919 160.433 73.3567 159.619H73.4661V161.068C73.4661 162.155 72.68 162.805 71.3606 162.805C70.3011 162.805 69.6448 162.415 69.5149 161.813H68.2708C68.4485 163.03 69.5833 163.83 71.3606 163.83ZM79.6312 154.54C80.8001 154.54 81.5794 155.401 81.6068 156.707H77.5462C77.6351 155.401 78.4554 154.54 79.6312 154.54ZM81.5726 159.093C81.265 159.742 80.6224 160.091 79.6722 160.091C78.4212 160.091 77.6077 159.168 77.5462 157.712V157.657H82.8441V157.206C82.8441 154.916 81.6341 153.501 79.6448 153.501C77.6214 153.501 76.3226 155.005 76.3226 157.322C76.3226 159.653 77.6009 161.13 79.6448 161.13C81.2581 161.13 82.3929 160.357 82.7484 159.093H81.5726ZM84.3539 155.647C84.3539 156.714 84.9828 157.309 86.3636 157.644L87.6283 157.951C88.4144 158.143 88.7972 158.484 88.7972 158.99C88.7972 159.667 88.0863 160.139 87.0951 160.139C86.1517 160.139 85.5638 159.742 85.3656 159.12H84.1556C84.2855 160.344 85.4134 161.13 87.0541 161.13C88.7289 161.13 90.0072 160.221 90.0072 158.901C90.0072 157.842 89.3373 157.24 87.9496 156.905L86.8148 156.632C85.9466 156.42 85.5365 156.105 85.5365 155.6C85.5365 154.943 86.2201 154.499 87.0951 154.499C87.9837 154.499 88.558 154.889 88.7152 155.477H89.8773C89.7201 154.267 88.6468 153.501 87.1019 153.501C85.5365 153.501 84.3539 154.424 84.3539 155.647ZM92.3578 163.509L93.3695 159.619H91.9887L91.3324 163.509H92.3578ZM103.266 161.13C105.132 161.13 106.356 159.619 106.356 157.315C106.356 154.998 105.139 153.501 103.266 153.501C102.254 153.501 101.359 154 100.956 154.793H100.846V150.705H99.6704V161H100.791V159.824H100.901C101.366 160.645 102.241 161.13 103.266 161.13ZM102.993 154.561C104.339 154.561 105.139 155.593 105.139 157.315C105.139 159.038 104.339 160.07 102.993 160.07C101.653 160.07 100.819 159.018 100.819 157.315C100.819 155.613 101.653 154.561 102.993 154.561ZM114.134 153.631H112.959V157.992C112.959 159.284 112.179 160.057 110.88 160.057C109.705 160.057 109.144 159.441 109.144 158.115V153.631H107.968V158.402C107.968 160.146 108.898 161.13 110.552 161.13C111.68 161.13 112.535 160.665 112.904 159.845H113.013V161H114.134V153.631ZM116.813 163.673C118.119 163.673 118.707 163.16 119.336 161.451L122.213 153.631H120.962L118.946 159.694H118.836L116.813 153.631H115.542L118.269 161.007L118.132 161.444C117.825 162.333 117.456 162.661 116.779 162.661C116.615 162.661 116.43 162.654 116.287 162.627V163.632C116.451 163.659 116.656 163.673 116.813 163.673ZM21.9365 172.647C21.9365 173.714 22.5654 174.309 23.9463 174.644L25.2109 174.951C25.9971 175.143 26.3799 175.484 26.3799 175.99C26.3799 176.667 25.6689 177.139 24.6777 177.139C23.7344 177.139 23.1465 176.742 22.9482 176.12H21.7383C21.8682 177.344 22.9961 178.13 24.6367 178.13C26.3115 178.13 27.5898 177.221 27.5898 175.901C27.5898 174.842 26.9199 174.24 25.5322 173.905L24.3975 173.632C23.5293 173.42 23.1191 173.105 23.1191 172.6C23.1191 171.943 23.8027 171.499 24.6777 171.499C25.5664 171.499 26.1406 171.889 26.2979 172.477H27.46C27.3027 171.267 26.2295 170.501 24.6846 170.501C23.1191 170.501 21.9365 171.424 21.9365 172.647ZM32.2989 177.07C30.9043 177.07 30.1182 176.059 30.1182 174.315C30.1182 172.565 30.9043 171.561 32.2989 171.561C33.6934 171.561 34.4795 172.565 34.4795 174.315C34.4795 176.059 33.6934 177.07 32.2989 177.07ZM32.2989 178.13C34.3975 178.13 35.6963 176.681 35.6963 174.315C35.6963 171.943 34.3975 170.501 32.2989 170.501C30.2002 170.501 28.9014 171.943 28.9014 174.315C28.9014 176.681 30.2002 178.13 32.2989 178.13ZM37.377 178H38.5528V173.434C38.5528 172.395 39.2979 171.561 40.2618 171.561C41.1915 171.561 41.7999 172.121 41.7999 172.996V178H42.9757V173.263C42.9757 172.326 43.6593 171.561 44.6846 171.561C45.7237 171.561 46.2364 172.094 46.2364 173.181V178H47.4122V172.907C47.4122 171.362 46.5714 170.501 45.0675 170.501C44.0489 170.501 43.2081 171.014 42.8116 171.793H42.7022C42.3604 171.027 41.6632 170.501 40.6651 170.501C39.6807 170.501 38.9425 170.973 38.6075 171.793H38.4981V170.631H37.377V178ZM52.3331 171.54C53.5021 171.54 54.2814 172.401 54.3087 173.707H50.2482C50.337 172.401 51.1573 171.54 52.3331 171.54ZM54.2745 176.093C53.9669 176.742 53.3243 177.091 52.3741 177.091C51.1232 177.091 50.3097 176.168 50.2482 174.712V174.657H55.546V174.206C55.546 171.916 54.3361 170.501 52.3468 170.501C50.3234 170.501 49.0245 172.005 49.0245 174.322C49.0245 176.653 50.3029 178.13 52.3468 178.13C53.9601 178.13 55.0948 177.357 55.4503 176.093H54.2745ZM57.7189 168.792V170.631H56.4816V171.615H57.7189V176.086C57.7189 177.494 58.3273 178.055 59.8449 178.055C60.0773 178.055 60.2892 178.027 60.5216 177.986V176.995C60.3029 177.016 60.2004 177.022 59.9884 177.022C59.2228 177.022 58.8947 176.653 58.8947 175.785V171.615H60.6037V170.631H58.8947V168.792H57.7189ZM62.216 178H63.3918V173.639C63.3918 172.395 64.1848 171.561 65.5041 171.561C66.7004 171.561 67.2746 172.21 67.2746 173.516V178H68.4504V173.229C68.4504 171.499 67.5139 170.501 65.8391 170.501C64.7111 170.501 63.8703 170.979 63.5012 171.793H63.3918V167.705H62.216V178ZM70.4592 178H71.635V170.631H70.4592V178ZM71.0471 169.134C71.4983 169.134 71.8674 168.765 71.8674 168.313C71.8674 167.862 71.4983 167.493 71.0471 167.493C70.5959 167.493 70.2268 167.862 70.2268 168.313C70.2268 168.765 70.5959 169.134 71.0471 169.134ZM73.7122 178H74.888V173.639C74.888 172.347 75.6673 171.561 76.9593 171.561C78.135 171.561 78.6956 172.189 78.6956 173.516V178H79.8714V173.229C79.8714 171.479 78.9485 170.501 77.2942 170.501C76.1663 170.501 75.3118 170.979 74.9427 171.793H74.8333V170.631H73.7122V178ZM87.0277 174.206C87.0277 175.812 86.2073 176.852 84.8402 176.852C83.473 176.852 82.7073 175.812 82.7073 174.206C82.7073 172.6 83.473 171.561 84.8402 171.561C86.2005 171.561 87.0277 172.6 87.0277 174.206ZM84.8948 180.83C86.9046 180.83 88.1761 179.777 88.1761 178.13V170.631H87.055V171.8H86.9456C86.5218 171.007 85.6126 170.501 84.5804 170.501C82.6868 170.501 81.4905 171.998 81.4905 174.206C81.4905 176.414 82.6732 177.891 84.5804 177.891C85.5921 177.891 86.4261 177.433 86.8909 176.619H87.0003V178.068C87.0003 179.155 86.2142 179.805 84.8948 179.805C83.8353 179.805 83.179 179.415 83.0491 178.813H81.805C81.9827 180.03 83.1175 180.83 84.8948 180.83ZM100.11 172.887C99.9047 171.574 98.8109 170.501 97.0199 170.501C94.9555 170.501 93.643 171.991 93.643 174.288C93.643 176.633 94.9623 178.13 97.0268 178.13C98.7973 178.13 99.8979 177.132 100.11 175.778H98.9203C98.7016 176.612 98.0111 177.07 97.0199 177.07C95.7074 177.07 94.8598 175.99 94.8598 174.288C94.8598 172.62 95.6937 171.561 97.0199 171.561C98.0795 171.561 98.7289 172.155 98.9203 172.887H100.11ZM104.709 177.07C103.315 177.07 102.529 176.059 102.529 174.315C102.529 172.565 103.315 171.561 104.709 171.561C106.104 171.561 106.89 172.565 106.89 174.315C106.89 176.059 106.104 177.07 104.709 177.07ZM104.709 178.13C106.808 178.13 108.107 176.681 108.107 174.315C108.107 171.943 106.808 170.501 104.709 170.501C102.611 170.501 101.312 171.943 101.312 174.315C101.312 176.681 102.611 178.13 104.709 178.13ZM112.816 177.07C111.421 177.07 110.635 176.059 110.635 174.315C110.635 172.565 111.421 171.561 112.816 171.561C114.21 171.561 114.997 172.565 114.997 174.315C114.997 176.059 114.21 177.07 112.816 177.07ZM112.816 178.13C114.915 178.13 116.213 176.681 116.213 174.315C116.213 171.943 114.915 170.501 112.816 170.501C110.717 170.501 109.418 171.943 109.418 174.315C109.418 176.681 110.717 178.13 112.816 178.13ZM117.962 178H119.138V167.705H117.962V178Z" fill="white"/>
<g clip-path="url(#clip1)">
<path fill-rule="evenodd" clip-rule="evenodd" d="M22.6123 1.4614C22.8092 1.84012 23.0728 2.36372 23.3991 3.01178L23.3991 3.01178C26.4936 9.15892 35.225 26.5035 46.1767 37.6059L38.1346 36.5092L37.8644 38.4909L48.8644 39.9909L49.9995 40.1457V39V29H47.9995V36.602C37.121 25.7891 28.3667 8.42176 25.1971 2.13373L25.1971 2.13373C24.8639 1.47284 24.5925 0.934336 24.3867 0.538696L22.6123 1.4614Z" fill="white"/>
</g>
</g>
<defs>
<clipPath id="clip0">
<path d="M0 44C0 19.6995 19.6995 0 44 0H116C140.301 0 160 19.6995 160 44V226C160 250.301 140.301 270 116 270H44C19.6995 270 0 250.301 0 226V44Z" fill="white"/>
</clipPath>
<clipPath id="clip1">
<rect width="60" height="40" fill="white"/>
</clipPath>
</defs>
</svg>
