<svg width="160" height="270" viewBox="0 0 160 270" fill="none" xmlns="http://www.w3.org/2000/svg" xmlns:xlink="http://www.w3.org/1999/xlink">
<g clip-path="url(#clip0)">
<path d="M0 44C0 19.6995 19.6995 0 44 0H116C140.301 0 160 19.6995 160 44V226C160 250.301 140.301 270 116 270H44C19.6995 270 0 250.301 0 226V44Z" fill="#F5F5F5"/>
<rect x="24" y="198" width="112" height="48" rx="24" fill="white"/>
<path d="M42.3125 227.5H43.9922V220.445H45.8594V219.031H43.9766V218.281C43.9766 217.469 44.3984 217.109 45.1719 217.109C45.4453 217.109 45.7422 217.141 45.9219 217.172V215.828C45.5859 215.773 45.2891 215.75 44.9766 215.75C43.2109 215.75 42.3125 216.453 42.3125 218.188V219.031H40.9141V220.445H42.3125V227.5ZM47.6163 227.5H49.2959V222.477C49.2959 221.281 50.1944 220.477 51.46 220.477C51.7413 220.477 52.2569 220.531 52.3897 220.578V218.922C52.21 218.875 51.8897 218.852 51.6475 218.852C50.5381 218.852 49.6006 219.461 49.3584 220.297H49.2334V218.992H47.6163V227.5ZM57.2169 226.172C55.7559 226.172 54.9356 225.102 54.9356 223.242C54.9356 221.398 55.7559 220.32 57.2169 220.32C58.67 220.32 59.4981 221.398 59.4981 223.242C59.4981 225.094 58.67 226.172 57.2169 226.172ZM57.2169 227.664C59.7013 227.664 61.2247 226 61.2247 223.242C61.2247 220.5 59.6934 218.828 57.2169 218.828C54.7325 218.828 53.2013 220.5 53.2013 223.242C53.2013 226 54.7247 227.664 57.2169 227.664ZM63.0831 227.5H64.7628V222.297C64.7628 221.203 65.5362 220.367 66.5597 220.367C67.5597 220.367 68.2003 220.953 68.2003 221.914V227.5H69.8487V222.148C69.8487 221.148 70.5597 220.367 71.6456 220.367C72.7472 220.367 73.2941 220.93 73.2941 222.078V227.5H74.9737V221.641C74.9737 219.867 73.9737 218.828 72.255 218.828C71.0753 218.828 70.0987 219.43 69.6691 220.359H69.5362C69.1612 219.43 68.3566 218.828 67.1925 218.828C66.0597 218.828 65.2003 219.398 64.8253 220.359H64.7003V218.992H63.0831V227.5Z" fill="black"/>
<circle cx="87.5" cy="222" r="7" fill="#0728EF"/>
<path d="M99.625 219.484V219.508H101.281V219.484C101.281 218.281 102.117 217.469 103.359 217.469C104.523 217.469 105.406 218.242 105.406 219.273C105.406 220.102 105.039 220.695 103.531 222.266L99.7188 226.234V227.5H107.312V225.93H102.156V225.797L104.664 223.258C106.555 221.344 107.133 220.367 107.133 219.172C107.133 217.312 105.555 215.953 103.414 215.953C101.195 215.953 99.625 217.406 99.625 219.484ZM113.429 227.773C116.054 227.773 117.585 225.609 117.585 221.867C117.585 218.133 116.03 215.953 113.429 215.953C110.812 215.953 109.257 218.125 109.257 221.852C109.257 225.602 110.796 227.773 113.429 227.773ZM113.429 226.242C111.898 226.242 111.023 224.703 111.023 221.852C111.023 219.031 111.913 217.484 113.429 217.484C114.944 217.484 115.819 219.023 115.819 221.852C115.819 224.711 114.96 226.242 113.429 226.242Z" fill="black"/>
<path d="M34.8887 156H37.2129L32.125 141.908H29.7715L24.6836 156H26.9297L28.2285 152.26H33.5996L34.8887 156ZM30.8359 144.467H31.002L33.043 150.424H28.7852L30.8359 144.467ZM39.2647 156H41.3643V149.496C41.3643 148.129 42.3311 147.084 43.6104 147.084C44.8604 147.084 45.6612 147.816 45.6612 149.018V156H47.7217V149.311C47.7217 148.061 48.6104 147.084 49.9678 147.084C51.3448 147.084 52.0284 147.787 52.0284 149.223V156H54.128V148.676C54.128 146.459 52.878 145.16 50.7295 145.16C49.2549 145.16 48.0342 145.912 47.4971 147.074H47.3311C46.8623 145.912 45.8565 145.16 44.4014 145.16C42.9854 145.16 41.9112 145.873 41.4424 147.074H41.2862V145.365H39.2647V156ZM60.3888 154.408C59.2462 154.408 58.4161 153.852 58.4161 152.895C58.4161 151.957 59.0802 151.459 60.545 151.361L63.1427 151.195V152.084C63.1427 153.402 61.9708 154.408 60.3888 154.408ZM59.8516 156.176C61.2481 156.176 62.4102 155.57 63.045 154.506H63.211V156H65.2325V148.734C65.2325 146.488 63.7286 145.16 61.0626 145.16C58.6505 145.16 56.9317 146.332 56.7169 148.158H58.7481C58.9825 147.406 59.793 146.977 60.9649 146.977C62.4005 146.977 63.1427 147.611 63.1427 148.734V149.652L60.2618 149.818C57.7325 149.975 56.3067 151.078 56.3067 152.992C56.3067 154.936 57.8009 156.176 59.8516 156.176ZM67.8116 156H76.2296V154.223H70.4484V154.057L76.171 146.898V145.365H67.8507V147.143H73.6613V147.309L67.8116 154.574V156ZM83.0861 154.34C81.2599 154.34 80.2345 153.002 80.2345 150.678C80.2345 148.373 81.2599 147.025 83.0861 147.025C84.9025 147.025 85.9377 148.373 85.9377 150.678C85.9377 152.992 84.9025 154.34 83.0861 154.34ZM83.0861 156.205C86.1916 156.205 88.0959 154.125 88.0959 150.678C88.0959 147.25 86.1818 145.16 83.0861 145.16C79.9806 145.16 78.0666 147.25 78.0666 150.678C78.0666 154.125 79.9709 156.205 83.0861 156.205ZM90.4602 156H92.5598V149.779C92.5598 148.119 93.5949 147.084 95.2844 147.084C96.8469 147.084 97.6086 147.934 97.6086 149.643V156H99.7082V149.115C99.7082 146.586 98.3703 145.16 95.9973 145.16C94.3957 145.16 93.1555 145.873 92.6379 147.055H92.4816V145.365H90.4602V156Z" fill="black"/>
<path d="M28.3545 178.232C30.3984 178.232 31.7998 176.865 31.7998 174.862C31.7998 172.921 30.4873 171.561 28.6143 171.561C27.7051 171.561 27.0078 171.841 26.5293 172.401H26.4199L26.7002 169.236H31.2393V168.136H25.7363L25.1963 173.728H26.3516C26.7549 173.023 27.4932 172.62 28.3887 172.62C29.6807 172.62 30.5693 173.543 30.5693 174.896C30.5693 176.25 29.6875 177.152 28.3682 177.152C27.2061 177.152 26.3584 176.441 26.249 175.375H25.0391C25.1484 177.077 26.4883 178.232 28.3545 178.232ZM36.919 178.232C39.1338 178.232 40.4053 176.359 40.4053 173.085C40.4053 169.817 39.1133 167.903 36.919 167.903C34.711 167.903 33.419 169.811 33.419 173.064C33.419 176.346 34.6973 178.232 36.919 178.232ZM36.919 177.159C35.4629 177.159 34.6563 175.703 34.6563 173.064C34.6563 170.46 35.4766 168.983 36.919 168.983C38.3614 168.983 39.168 170.446 39.168 173.064C39.168 175.71 38.375 177.159 36.919 177.159ZM46.1602 178.937V178.014C48.088 177.856 49.2091 176.831 49.2091 175.211C49.2091 173.844 48.4366 173.01 46.7481 172.559L46.1602 172.415V169.072C47.1651 169.195 47.8419 169.838 47.8692 170.692H49.0313C48.9835 169.209 47.8555 168.156 46.1602 168.013V167.062H45.2442V168.02C43.5011 168.19 42.421 169.216 42.421 170.706C42.421 171.964 43.2276 172.866 44.6973 173.256L45.2442 173.406V176.961C44.1231 176.824 43.4259 176.216 43.3507 175.3H42.1817C42.1886 176.811 43.3917 177.884 45.2442 178.021V178.937H46.1602ZM48.0264 175.307C48.0264 176.312 47.3497 176.92 46.1602 176.981V173.591C47.4454 173.864 48.0264 174.397 48.0264 175.307ZM43.5968 170.638C43.5968 169.783 44.2872 169.127 45.2442 169.072V172.217C44.1641 171.991 43.5968 171.444 43.5968 170.638ZM60.131 174.206C60.131 175.812 59.3107 176.852 57.9435 176.852C56.5763 176.852 55.8107 175.812 55.8107 174.206C55.8107 172.6 56.5763 171.561 57.9435 171.561C59.3039 171.561 60.131 172.6 60.131 174.206ZM57.9982 180.83C60.008 180.83 61.2795 179.777 61.2795 178.13V170.631H60.1584V171.8H60.049C59.6252 171.007 58.716 170.501 57.6838 170.501C55.7902 170.501 54.5939 171.998 54.5939 174.206C54.5939 176.414 55.7765 177.891 57.6838 177.891C58.6955 177.891 59.5295 177.433 59.9943 176.619H60.1037V178.068C60.1037 179.155 59.3175 179.805 57.9982 179.805C56.9386 179.805 56.2824 179.415 56.1525 178.813H54.9084C55.0861 180.03 56.2209 180.83 57.9982 180.83ZM63.3566 178H64.5324V170.631H63.3566V178ZM63.9445 169.134C64.3957 169.134 64.7648 168.765 64.7648 168.313C64.7648 167.862 64.3957 167.493 63.9445 167.493C63.4934 167.493 63.1242 167.862 63.1242 168.313C63.1242 168.765 63.4934 169.134 63.9445 169.134ZM67.1018 178H68.2776V171.615H69.9661V170.631H68.2776V169.947C68.2776 169.12 68.6741 168.765 69.3782 168.765C69.6106 168.765 69.8772 168.792 70.0344 168.826V167.842C69.7473 167.794 69.5422 167.773 69.3098 167.773C67.8879 167.773 67.1018 168.402 67.1018 169.913V170.631H65.8645V171.615H67.1018V178ZM72.0091 168.792V170.631H70.7718V171.615H72.0091V176.086C72.0091 177.494 72.6175 178.055 74.135 178.055C74.3675 178.055 74.5794 178.027 74.8118 177.986V176.995C74.593 177.016 74.4905 177.022 74.2786 177.022C73.513 177.022 73.1848 176.653 73.1848 175.785V171.615H74.8938V170.631H73.1848V168.792H72.0091ZM86.3216 172.887C86.1166 171.574 85.0228 170.501 83.2318 170.501C81.1673 170.501 79.8548 171.991 79.8548 174.288C79.8548 176.633 81.1742 178.13 83.2386 178.13C85.0091 178.13 86.1097 177.132 86.3216 175.778H85.1322C84.9134 176.612 84.223 177.07 83.2318 177.07C81.9193 177.07 81.0716 175.99 81.0716 174.288C81.0716 172.62 81.9056 171.561 83.2318 171.561C84.2914 171.561 84.9408 172.155 85.1322 172.887H86.3216ZM90.1625 177.098C89.308 177.098 88.6723 176.66 88.6723 175.908C88.6723 175.17 89.1645 174.78 90.2855 174.705L92.268 174.575V175.252C92.268 176.305 91.3725 177.098 90.1625 177.098ZM89.9437 178.13C90.9281 178.13 91.7348 177.699 92.2133 176.913H92.3227V178H93.4437V172.955C93.4437 171.424 92.4389 170.501 90.641 170.501C89.0687 170.501 87.9066 171.28 87.7494 172.463H88.9389C89.1029 171.882 89.7182 171.547 90.6 171.547C91.7006 171.547 92.268 172.046 92.268 172.955V173.625L90.142 173.755C88.4262 173.857 87.4555 174.616 87.4555 175.936C87.4555 177.282 88.515 178.13 89.9437 178.13ZM95.4526 178H96.6284V173.434C96.6284 172.395 97.4418 171.643 98.5629 171.643C98.7953 171.643 99.2192 171.684 99.3149 171.711V170.535C99.1645 170.515 98.9184 170.501 98.727 170.501C97.7495 170.501 96.9018 171.007 96.683 171.725H96.5737V170.631H95.4526V178ZM103.142 178.13C104.161 178.13 105.036 177.645 105.5 176.824H105.61V178H106.731V167.705H105.555V171.793H105.453C105.036 170.986 104.167 170.501 103.142 170.501C101.269 170.501 100.045 172.005 100.045 174.315C100.045 176.633 101.255 178.13 103.142 178.13ZM103.416 171.561C104.749 171.561 105.582 172.627 105.582 174.315C105.582 176.018 104.755 177.07 103.416 177.07C102.069 177.07 101.262 176.038 101.262 174.315C101.262 172.6 102.076 171.561 103.416 171.561Z" fill="black"/>
<g clip-path="url(#clip1)">
<rect x="64.1514" y="-75.8441" width="183.155" height="183.155" transform="rotate(30 64.1514 -75.8441)" fill="url(#pattern0)"/>
</g>
</g>
<defs>
<pattern id="pattern0" patternContentUnits="objectBoundingBox" width="1" height="1">
<use xlink:href="#image0" transform="scale(0.000480077)"/>
</pattern>
<clipPath id="clip0">
<path d="M0 44C0 19.6995 19.6995 0 44 0H116C140.301 0 160 19.6995 160 44V226C160 250.301 140.301 270 116 270H44C19.6995 270 0 250.301 0 226V44Z" fill="white"/>
</clipPath>
<clipPath id="clip1">
<rect width="160" height="160" fill="white"/>
</clipPath>
<image id="image0" width="2083" height="2083" xlink:href="./pic_amazon.png"/>
</defs>
</svg>
