<svg width="58" height="58" viewBox="0 0 58 58" fill="none" xmlns="http://www.w3.org/2000/svg">
<path d="M42.1909 25.3924C42.4595 25.3911 42.728 25.3774 42.9953 25.3512L43 19.8602C40.9579 19.7097 39.0332 18.8399 37.5625 17.4031C36.0918 15.9663 35.1687 14.0538 34.9545 12H30.2679L30.2189 35.0386C30.2189 37.8652 27.7438 40.0922 24.9411 40.0922C23.5955 40.0922 22.305 39.5531 21.3535 38.5934C20.4019 37.6338 19.8674 36.3323 19.8674 34.9751C19.8674 33.618 20.4019 32.3164 21.3535 31.3568C22.305 30.3972 23.5955 29.858 24.9411 29.858C25.151 29.858 25.3515 29.8957 25.5555 29.9204V24.9797C25.3515 24.9667 25.1486 24.9479 24.9411 24.9479C22.975 24.9479 21.0529 25.5359 19.4181 26.6376C17.7833 27.7393 16.5091 29.3051 15.7567 31.1371C15.0043 32.9692 14.8074 34.9851 15.191 36.9299C15.5746 38.8748 16.5214 40.6613 17.9117 42.0634C19.302 43.4656 21.0733 44.4205 23.0017 44.8073C24.9301 45.1942 26.9289 44.9957 28.7454 44.2368C30.5619 43.478 32.1145 42.1929 33.2069 40.5441C34.2992 38.8953 34.8823 36.9569 34.8823 34.9739V21.4087C35.6768 22.6325 36.7609 23.6375 38.0369 24.333C39.3129 25.0285 40.7405 25.3926 42.1909 25.3924Z" fill="white"/>
</svg>
