<svg width="58" height="58" viewBox="0 0 58 58" fill="none" xmlns="http://www.w3.org/2000/svg">
<path d="M21.6361 44C35.599 44 43.2349 32.0746 43.2349 21.7333C43.2349 21.3946 43.2282 21.0575 43.2134 20.7218C44.6991 19.6135 45.9814 18.2412 47 16.6693C45.6398 17.2927 44.1761 17.7123 42.6406 17.9015C44.2079 16.9327 45.4111 15.3999 45.9788 13.573C44.4886 14.4843 42.8584 15.1267 41.1584 15.4726C39.7732 13.9514 37.8011 13 35.6173 13C31.4252 13 28.0257 16.5047 28.0257 20.8248C28.0257 21.439 28.0924 22.0362 28.2227 22.6092C21.9135 22.2819 16.319 19.1678 12.5748 14.4327C11.9005 15.627 11.5458 16.9843 11.5469 18.3661C11.5469 21.0812 12.8871 23.4781 14.9251 24.8804C13.7196 24.8424 12.5405 24.5067 11.4871 23.9015C11.4859 23.9344 11.4859 23.9664 11.4859 24.0015C11.4859 27.7915 14.1026 30.9559 17.5761 31.6729C16.9237 31.8561 16.2505 31.9487 15.5744 31.9483C15.0861 31.9483 14.6102 31.8988 14.1477 31.8072C15.1141 34.9167 17.9165 37.1795 21.2391 37.2427C18.6409 39.3421 15.3679 40.5926 11.8107 40.5926C11.2056 40.5931 10.601 40.5569 10 40.4841C13.3596 42.7041 17.3489 43.9995 21.6365 43.9995" fill="white"/>
</svg>
