<svg width="207" height="85" viewBox="0 0 207 85" fill="none" xmlns="http://www.w3.org/2000/svg">
<path fill-rule="evenodd" clip-rule="evenodd" d="M24.3323 11.0296C25.4677 10.966 26.6503 10.9641 27.8813 11.0289C37.4677 11.5335 45.2013 16.5636 50.4676 22.6096C55.662 28.5731 58.8268 35.9563 58.8268 41.7857V43.7189L57.1191 44.625C52.1815 47.245 47.0761 48.3611 41.1042 46.8053C39.1944 46.3078 37.2314 45.5456 35.1858 44.5085C36.1705 49.2647 35.766 55.0486 32.795 61.9326L26.8926 59.3852C30.2366 51.6371 29.4841 46.2402 27.839 42.5487C26.184 38.835 23.4784 36.4726 21.7589 34.9713C21.717 34.9347 21.6758 34.8987 21.6351 34.8631C21.6146 34.8452 21.594 34.8272 21.5735 34.8093L25.8067 29.9713C25.8871 30.0416 25.9729 30.1162 26.0637 30.1952C26.1148 30.2397 26.1676 30.2855 26.2218 30.3328C33.2899 36.4597 38.5005 39.4838 42.7248 40.5844C46.1412 41.4744 49.1099 41.1566 52.2317 39.8416C51.6325 36.1044 49.4183 31.1925 45.6201 26.832C41.1906 21.7466 34.9742 17.8397 27.5434 17.4486C18.7768 16.9872 13.7292 20.6744 10.6891 25.4887C7.50502 30.5313 6.43791 37.0103 6.42857 41.7887C6.43019 61.3145 22.2595 77.1429 41.7857 77.1429C61.3129 77.1429 77.1429 61.3129 77.1429 41.7857C77.1429 39.7803 76.9762 37.8163 76.6567 35.9061C73.8588 19.1779 59.308 6.42857 41.7857 6.42857C35.4384 6.42857 29.4817 8.10113 24.3323 11.0296ZM0 41.7857C0 18.7081 18.7081 0 41.7857 0C62.5008 0 79.6896 15.0705 82.9972 34.8456C83.3751 37.1049 83.5714 39.4236 83.5714 41.7857C83.5714 64.8633 64.8633 83.5714 41.7857 83.5714C18.7081 83.5714 0 64.8633 0 41.7857Z" fill="#D5FC51"/>
<path fill-rule="evenodd" clip-rule="evenodd" d="M53.6113 52.2038C60.7366 56.1007 68.8809 58.5754 75.1696 57.8766L75.8795 64.2659C67.7039 65.1743 58.1697 62.024 50.5266 57.8439C46.651 55.7243 43.1088 53.2583 40.3115 50.7301C37.5913 48.2714 35.2755 45.4863 34.3047 42.6671L40.3831 40.5742C40.8242 41.8553 42.1788 43.7525 44.6221 45.9608C46.9883 48.0995 50.1028 50.2849 53.6113 52.2038Z" fill="#D5FC51"/>
<path fill-rule="evenodd" clip-rule="evenodd" d="M50.2656 30.555C55.4647 26.7902 60.9591 20.7677 64.8295 14.5391L70.2898 17.932C66.0344 24.7803 59.9906 31.4498 54.036 35.7618L50.2656 30.555Z" fill="#D5FC51"/>
<path fill-rule="evenodd" clip-rule="evenodd" d="M38.0625 15.2377C43.063 11.3484 46.3329 8.0708 49.6197 3.87109L54.6822 7.83307C51.046 12.4793 47.3932 16.1246 42.0093 20.3121L38.0625 15.2377Z" fill="#D5FC51"/>
<path fill-rule="evenodd" clip-rule="evenodd" d="M54.6943 54.2693C63.1037 49.0806 71.2296 39.0066 75.8796 30.6367L81.4992 33.7587C76.5339 42.6962 67.7371 53.7755 58.0699 59.7403L54.6943 54.2693Z" fill="#D5FC51"/>
<path d="M131.832 14.2817L133.858 25.4052H129.676L131.832 14.2817ZM136.855 41.1773H157.499L145.245 1.33203H118.419L106 41.1773H126.533L127.195 38.0782H136.249L136.855 41.1773Z" fill="#D5FC51"/>
<path d="M186.403 41.4956H206V19.0298H181.602V26.0112H184.38C184.23 26.6117 183.992 26.9656 183.579 27.3034C183.166 27.6412 182.58 27.9254 181.716 27.9254C180.552 27.9254 179.809 27.6364 179.088 27.137C178.366 26.6375 177.257 25.147 177.257 23.3078V21.4765C177.257 19.6373 177.867 18.2023 178.81 17.4254C179.754 16.6484 180.843 16.1612 182.182 16.1612C183.52 16.1612 184.568 16.4522 185.746 17.7349H206V17.6223C205.437 11.3916 203.353 6.90628 199.524 4.16629C195.732 1.38876 189.951 0 182.18 0C173.808 0 166.868 1.05668 162.438 4.77255C158.046 8.4509 155.834 12.8386 155.834 20.5331C155.834 20.5331 155.834 14.5951 155.834 21.6985C155.834 28.8018 157.851 33.4394 160.442 36.4046C162.623 38.9019 167.386 41.6066 173.15 41.6066C178.914 41.6066 182.14 39.6788 183.583 37.9029C184.818 36.3833 185.969 34.3513 186.403 31.1326V41.4956Z" fill="#D5FC51"/>
<path fill-rule="evenodd" clip-rule="evenodd" d="M150.316 79.4916C146.305 82.7315 140.041 84.3515 131.522 84.3515C122.928 84.3515 116.682 82.7315 112.786 79.4916C108.928 76.2144 106.999 71.0937 106.999 64.1297V62.4538C106.999 55.8994 109.119 50.8719 113.359 47.3713C117.637 43.8334 123.883 42.0645 132.095 42.0645C140.117 42.0645 146.171 43.852 150.259 47.4271C154.346 50.965 156.389 55.9925 156.389 62.5097V64.1855C156.389 71.1496 154.365 76.2516 150.316 79.4916ZM128.403 66.8623C127.748 66.0871 127.421 64.8765 127.421 63.2303C127.421 61.5693 127.748 60.3623 128.403 59.6093C129.066 58.8637 130.1 58.4909 131.508 58.4909H131.847C133.171 58.4909 134.187 58.9006 134.895 59.72C135.61 60.5468 135.967 61.7538 135.967 63.341C135.967 64.8912 135.606 66.0613 134.883 66.8512C134.168 67.6411 133.152 68.036 131.835 68.036H131.497C130.089 68.036 129.058 67.6448 128.403 66.8623Z" fill="#D5FC51"/>
<path d="M173.475 57.7431L182.172 83.8471H205.986V43.3408H183.81C183.81 43.3408 187.832 60.5335 190.179 68.826L181.052 43.3408H157.332V83.8471H179.508C179.508 83.8471 175.519 66.3603 173.475 57.7431Z" fill="#D5FC51"/>
</svg>
