<svg width="207" height="85" viewBox="0 0 207 85" fill="none" xmlns="http://www.w3.org/2000/svg">
<path d="M132.232 23.0945L132.783 15.8982L133.278 23.0945L134.16 26.9398H131.295L132.232 23.0945ZM137.796 42.5958H158.4L146.17 3.04374H119.395L107 42.5958H127.494L128.265 39.5196H137.08L137.796 42.5958Z" fill="#D5FC51"/>
<path d="M184.786 42.5958H203.958V20.5675H178.782V27.3793H183.244C183.097 27.9652 182.822 28.423 182.418 28.7526C182.014 29.0822 181.389 29.247 180.544 29.247C179.406 29.247 178.598 28.9357 178.12 28.3131C177.68 27.6539 177.459 26.4271 177.459 24.6326V22.9297C177.459 21.1352 177.716 19.8717 178.231 19.1392C178.745 18.4068 179.534 18.0406 180.6 18.0406C181.261 18.0406 181.738 18.1321 182.032 18.3152C182.362 18.4617 182.564 18.773 182.638 19.2491V19.304H204.068V19.1942C203.517 13.1149 201.369 8.73851 197.623 6.06508C193.913 3.35503 188.257 2 180.655 2C172.464 2 166.202 3.8128 161.869 7.43841C157.571 11.0274 155.423 16.5757 155.423 24.0833V25.5665C155.423 31.8289 156.69 36.4067 159.224 39.2998C161.758 42.1564 165.596 43.5846 170.738 43.5846C173.199 43.5846 175.348 43.2184 177.184 42.486C179.02 41.7535 180.526 40.5084 181.701 38.7505C182.252 37.8349 182.711 36.7546 183.079 35.5094C183.483 34.2643 183.776 32.8543 183.96 31.2795L184.786 42.5958Z" fill="#D5FC51"/>
<path d="M132.728 84C140.918 84 146.941 82.4069 150.797 79.2208C154.691 76.0346 156.637 71.0174 156.637 64.169V62.521C156.637 56.1121 154.672 51.1681 150.742 47.689C146.813 44.1732 140.991 42.4153 133.278 42.4153C125.382 42.4153 119.377 44.1549 115.264 47.634C111.187 51.0765 109.149 56.0205 109.149 62.4661V64.1141C109.149 70.9625 111.003 75.998 114.713 79.2208C118.459 82.4069 124.464 84 132.728 84ZM132.838 66.641C132.03 66.641 131.424 66.4762 131.02 66.1466C130.652 65.817 130.469 65.2494 130.469 64.4437V62.0815C130.469 61.3491 130.671 60.7998 131.075 60.4335C131.479 60.0673 132.085 59.8842 132.893 59.8842C133.701 59.8842 134.307 60.0673 134.711 60.4335C135.115 60.7998 135.317 61.3491 135.317 62.0815V64.3887C135.317 65.1944 135.115 65.7804 134.711 66.1466C134.307 66.4762 133.682 66.641 132.838 66.641Z" fill="#D5FC51"/>
<path d="M178.069 72.1344L174.047 57.5221L183.137 83.0112H206V43.4591H186.277V53.457L190.464 68.344L181.484 43.4591H158.181V83.0112H178.069V72.1344Z" fill="#D5FC51"/>
<path d="M132.232 23.0945L132.783 15.8982L133.278 23.0945L134.16 26.9398H131.295L132.232 23.0945ZM137.796 42.5958H158.4L146.17 3.04374H119.395L107 42.5958H127.494L128.265 39.5196H137.08L137.796 42.5958Z" stroke="#3D89EA"/>
<path d="M184.786 42.5958H203.958V20.5675H178.782V27.3793H183.244C183.097 27.9652 182.822 28.423 182.418 28.7526C182.014 29.0822 181.389 29.247 180.544 29.247C179.406 29.247 178.598 28.9357 178.12 28.3131C177.68 27.6539 177.459 26.4271 177.459 24.6326V22.9297C177.459 21.1352 177.716 19.8717 178.231 19.1392C178.745 18.4068 179.534 18.0406 180.6 18.0406C181.261 18.0406 181.738 18.1321 182.032 18.3152C182.362 18.4617 182.564 18.773 182.638 19.2491V19.304H204.068V19.1942C203.517 13.1149 201.369 8.73851 197.623 6.06508C193.913 3.35503 188.257 2 180.655 2C172.464 2 166.202 3.8128 161.869 7.43841C157.571 11.0274 155.423 16.5757 155.423 24.0833V25.5665C155.423 31.8289 156.69 36.4067 159.224 39.2998C161.758 42.1564 165.596 43.5846 170.738 43.5846C173.199 43.5846 175.348 43.2184 177.184 42.486C179.02 41.7535 180.526 40.5084 181.701 38.7505C182.252 37.8349 182.711 36.7546 183.079 35.5094C183.483 34.2643 183.776 32.8543 183.96 31.2795L184.786 42.5958Z" stroke="#3D89EA"/>
<path d="M132.728 84C140.918 84 146.941 82.4069 150.797 79.2208C154.691 76.0346 156.637 71.0174 156.637 64.169V62.521C156.637 56.1121 154.672 51.1681 150.742 47.689C146.813 44.1732 140.991 42.4153 133.278 42.4153C125.382 42.4153 119.377 44.1549 115.264 47.634C111.187 51.0765 109.149 56.0205 109.149 62.4661V64.1141C109.149 70.9625 111.003 75.998 114.713 79.2208C118.459 82.4069 124.464 84 132.728 84ZM132.838 66.641C132.03 66.641 131.424 66.4762 131.02 66.1466C130.652 65.817 130.469 65.2494 130.469 64.4437V62.0815C130.469 61.3491 130.671 60.7998 131.075 60.4335C131.479 60.0673 132.085 59.8842 132.893 59.8842C133.701 59.8842 134.307 60.0673 134.711 60.4335C135.115 60.7998 135.317 61.3491 135.317 62.0815V64.3887C135.317 65.1944 135.115 65.7804 134.711 66.1466C134.307 66.4762 133.682 66.641 132.838 66.641Z" stroke="#3D89EA"/>
<path d="M178.069 72.1344L174.047 57.5221L183.137 83.0112H206V43.4591H186.277V53.457L190.464 68.344L181.484 43.4591H158.181V83.0112H178.069V72.1344Z" stroke="#3D89EA"/>
<path fill-rule="evenodd" clip-rule="evenodd" d="M24.3323 11.0296C25.4677 10.966 26.6503 10.9641 27.8813 11.0289C37.4677 11.5335 45.2013 16.5636 50.4676 22.6096C55.662 28.5731 58.8268 35.9563 58.8268 41.7857V43.7189L57.1191 44.625C52.1815 47.245 47.0761 48.3611 41.1042 46.8053C39.1944 46.3078 37.2314 45.5456 35.1858 44.5085C36.1705 49.2647 35.766 55.0486 32.795 61.9326L26.8926 59.3852C30.2366 51.6371 29.4841 46.2402 27.839 42.5487C26.184 38.835 23.4784 36.4726 21.7589 34.9713C21.717 34.9347 21.6758 34.8987 21.6351 34.8631C21.6146 34.8452 21.594 34.8272 21.5735 34.8093L25.8067 29.9713C25.8871 30.0416 25.9729 30.1162 26.0637 30.1952C26.1148 30.2397 26.1676 30.2855 26.2218 30.3328C33.2899 36.4597 38.5005 39.4838 42.7248 40.5844C46.1412 41.4744 49.1099 41.1566 52.2317 39.8416C51.6325 36.1044 49.4183 31.1925 45.6201 26.832C41.1906 21.7466 34.9742 17.8397 27.5434 17.4486C18.7768 16.9872 13.7292 20.6744 10.6891 25.4887C7.50502 30.5313 6.43791 37.0103 6.42857 41.7887C6.43019 61.3145 22.2595 77.1429 41.7857 77.1429C61.3129 77.1429 77.1429 61.3129 77.1429 41.7857C77.1429 39.7803 76.9762 37.8163 76.6567 35.9061C73.8588 19.1779 59.308 6.42857 41.7857 6.42857C35.4384 6.42857 29.4817 8.10113 24.3323 11.0296ZM0 41.7857C0 18.7081 18.7081 0 41.7857 0C62.5008 0 79.6896 15.0705 82.9972 34.8456C83.3751 37.1049 83.5714 39.4236 83.5714 41.7857C83.5714 64.8633 64.8633 83.5714 41.7857 83.5714C18.7081 83.5714 0 64.8633 0 41.7857Z" fill="#D5FC51"/>
<path fill-rule="evenodd" clip-rule="evenodd" d="M53.611 52.2038C60.7363 56.1007 68.8806 58.5754 75.1693 57.8766L75.8792 64.2659C67.7036 65.1743 58.1694 62.024 50.5263 57.8439C46.6507 55.7243 43.1085 53.2583 40.3112 50.7301C37.591 48.2714 35.2752 45.4863 34.3044 42.6671L40.3828 40.5742C40.8239 41.8553 42.1785 43.7525 44.6218 45.9608C46.988 48.0995 50.1025 50.2849 53.611 52.2038Z" fill="#D5FC51"/>
<path fill-rule="evenodd" clip-rule="evenodd" d="M50.2656 30.555C55.4647 26.7902 60.9591 20.7677 64.8295 14.5391L70.2898 17.932C66.0344 24.7803 59.9906 31.4498 54.036 35.7618L50.2656 30.555Z" fill="#D5FC51"/>
<path fill-rule="evenodd" clip-rule="evenodd" d="M38.0625 15.2377C43.063 11.3484 46.3329 8.0708 49.6197 3.87109L54.6822 7.83307C51.046 12.4793 47.3932 16.1246 42.0093 20.3121L38.0625 15.2377Z" fill="#D5FC51"/>
<path fill-rule="evenodd" clip-rule="evenodd" d="M54.6941 54.2693C63.1035 49.0806 71.2294 39.0066 75.8794 30.6367L81.499 33.7587C76.5337 42.6962 67.7369 53.7755 58.0697 59.7403L54.6941 54.2693Z" fill="#D5FC51"/>
</svg>
