<?xml version="1.0" standalone="no"?>
<!DOCTYPE svg PUBLIC "-//W3C//DTD SVG 20010904//EN"
 "http://www.w3.org/TR/2001/REC-SVG-20010904/DTD/svg10.dtd">
<svg version="1.0" xmlns="http://www.w3.org/2000/svg"
 width="1200.000000pt" height="1200.000000pt" viewBox="0 0 1200.000000 1200.000000"
 preserveAspectRatio="xMidYMid meet">
<metadata>
Created by potrace 1.14, written by Peter Selinger 2001-2017
</metadata>
<g transform="translate(0.000000,1200.000000) scale(0.100000,-0.100000)"
fill="#000000" stroke="none">
<path d="M5725 10464 c-27 -2 -117 -11 -200 -20 -1863 -193 -3415 -1545 -3865
-3368 -92 -374 -124 -648 -124 -1071 0 -342 10 -473 60 -765 295 -1734 1612
-3146 3328 -3570 374 -92 648 -124 1071 -124 342 0 473 10 765 60 1734 295
3146 1612 3570 3328 92 374 124 648 124 1071 0 342 -10 473 -60 765 -192 1126
-826 2149 -1759 2836 -628 462 -1357 746 -2160 839 -133 15 -632 28 -750 19z
m718 -707 c59 -8 111 -17 114 -21 23 -23 -700 -713 -793 -758 -16 -8 -32 -4
-73 16 -90 46 -292 123 -432 166 -296 89 -581 131 -905 134 -117 0 -207 5
-200 9 6 4 74 40 150 78 412 209 842 334 1321 384 167 18 663 13 818 -8z m967
-248 c181 -71 445 -209 640 -334 68 -43 295 -210 363 -267 l27 -23 -99 -147
c-178 -263 -361 -497 -572 -733 -126 -140 -456 -472 -462 -465 -2 3 -40 59
-85 125 -214 315 -455 582 -760 840 -51 43 -89 81 -85 85 354 311 727 693 900
922 15 21 33 36 38 34 6 -2 48 -19 95 -37z m-2705 -928 c455 -68 881 -259
1275 -571 221 -175 517 -497 680 -740 136 -203 270 -461 345 -665 34 -91 105
-348 105 -380 0 -30 -282 -114 -450 -135 -592 -71 -1282 254 -2220 1048 -79
67 -148 122 -152 122 -9 0 -448 -499 -448 -509 0 -4 40 -42 90 -85 380 -331
607 -699 692 -1118 20 -100 23 -142 23 -353 -1 -206 -4 -257 -23 -360 -41
-216 -98 -411 -182 -623 -28 -70 -31 -85 -19 -93 8 -4 147 -65 309 -135 162
-70 298 -128 301 -130 3 -2 27 52 53 119 137 348 218 676 247 998 14 163 6
466 -16 598 -8 52 -14 95 -12 97 1 2 27 -33 57 -78 478 -723 1712 -1512 2872
-1837 188 -52 340 -86 522 -116 82 -14 151 -27 153 -29 7 -6 -130 -159 -247
-276 -634 -635 -1461 -1015 -2368 -1091 -199 -16 -592 -6 -789 20 -418 57
-767 161 -1143 343 -193 93 -279 142 -450 254 -691 457 -1225 1146 -1487 1919
-152 450 -212 841 -200 1319 25 1001 397 1829 997 2218 254 165 561 264 905
292 117 9 454 -4 580 -23z m4311 -306 c226 -299 437 -698 553 -1048 l33 -98
-83 -137 c-337 -561 -760 -1104 -1218 -1563 -270 -269 -483 -453 -709 -612
l-83 -59 -169 91 c-285 153 -518 299 -730 457 l-105 79 85 7 c258 23 475 69
680 144 58 21 204 88 325 149 l220 110 3 105 c8 256 -40 556 -133 838 l-55
167 57 50 c411 357 836 836 1177 1328 38 54 72 95 76 90 4 -4 38 -48 76 -98z
m751 -2387 c-14 -533 -130 -1019 -353 -1486 l-64 -134 -117 7 c-316 18 -682
86 -961 180 -8 3 12 26 50 57 326 269 766 722 1083 1118 105 131 288 374 330
438 15 23 30 42 33 42 3 0 2 -100 -1 -222z"/>
</g>
</svg>
